<?xml version="1.0" standalone="no"?>
<!DOCTYPE svg PUBLIC "-//W3C//DTD SVG 20010904//EN"
 "http://www.w3.org/TR/2001/REC-SVG-20010904/DTD/svg10.dtd">
<svg version="1.0" xmlns="http://www.w3.org/2000/svg"
 width="1024.000000pt" height="1024.000000pt" viewBox="0 0 1024.000000 1024.000000"
 preserveAspectRatio="xMidYMid meet">

<g transform="translate(0.000000,1024.000000) scale(0.100000,-0.100000)"
fill="#000000" stroke="none">
<path d="M4845 10230 c-1533 -92 -2896 -822 -3820 -2045 -702 -930 -1066
-2104 -1015 -3273 59 -1339 590 -2528 1546 -3462 755 -737 1686 -1208 2734
-1384 292 -49 449 -61 830 -61 361 0 469 7 740 46 1113 160 2136 681 2925
1490 790 809 1276 1816 1419 2939 30 235 39 421 33 735 -6 314 -12 399 -48
650 -157 1085 -659 2083 -1445 2870 -778 780 -1777 1285 -2854 1445 -319 47
-752 68 -1045 50z m705 -155 c847 -75 1618 -342 2310 -800 1156 -766 1944
-1969 2169 -3312 53 -320 65 -474 66 -843 0 -341 -7 -455 -46 -725 -179 -1245
-829 -2375 -1825 -3171 -279 -223 -535 -386 -869 -554 -555 -280 -1109 -441
-1740 -506 -239 -25 -744 -25 -980 0 -828 87 -1570 349 -2240 791 -855 564
-1530 1390 -1898 2325 -174 441 -277 871 -329 1370 -20 191 -17 795 5 985 83
716 284 1346 622 1940 433 764 1096 1428 1860 1866 145 83 481 245 630 304
444 176 958 295 1440 334 174 14 647 12 825 -4z"/>
<path d="M6105 9083 c-33 -9 -74 -43 -90 -74 -19 -35 -329 -872 -339 -912 -13
-55 24 -134 78 -164 16 -9 13 -23 -44 -177 l-62 -167 -50 -25 c-168 -85 -250
-265 -204 -444 8 -30 14 -55 13 -56 -1 -1 -255 -157 -564 -348 l-563 -348 -29
21 c-107 77 -264 86 -390 25 -151 -74 -236 -252 -202 -422 l11 -59 -77 -136
c-59 -102 -82 -135 -93 -130 -36 16 -106 13 -134 -4 -21 -13 -99 -139 -284
-458 -207 -359 -255 -448 -259 -485 -7 -78 8 -91 278 -247 134 -77 256 -143
270 -146 35 -9 91 8 116 35 12 13 134 219 272 459 212 368 251 441 251 475 0
43 -25 88 -63 113 l-25 16 76 132 c67 116 79 132 106 137 17 3 40 8 52 11 19
6 36 -20 160 -239 l139 -246 138 0 137 0 0 -135 0 -135 -191 0 -192 0 6 -83
c13 -169 85 -357 188 -493 41 -55 48 -69 37 -80 -10 -10 -542 -386 -986 -698
l-83 -58 -40 16 c-43 18 -124 21 -161 7 -17 -6 -1062 -738 -1385 -970 -32 -22
-73 -108 -73 -151 0 -19 4 -49 9 -67 11 -38 261 -393 301 -427 37 -31 113 -48
165 -36 46 10 60 20 835 568 671 474 649 455 650 567 l1 60 639 450 c458 322
646 449 662 447 99 -12 330 -12 389 1 l66 14 664 -384 664 -383 6 -53 c6 -57
26 -102 56 -130 28 -24 1445 -842 1484 -856 68 -24 145 -6 200 47 46 45 246
388 259 446 14 62 -5 132 -49 178 -24 26 -257 165 -731 439 -382 221 -713 410
-735 420 -56 26 -121 24 -180 -5 -39 -20 -52 -23 -69 -14 -23 12 -1059 609
-1064 613 -2 1 22 39 51 84 90 133 144 289 154 439 l6 92 -197 0 -196 0 0 135
0 135 131 0 131 0 -6 28 c-3 15 -64 371 -136 792 -71 421 -132 774 -134 785
-4 16 6 25 51 44 75 33 147 105 186 188 29 62 32 77 32 163 0 82 -4 103 -27
152 l-27 57 62 166 c58 157 62 166 84 160 13 -3 42 -1 64 5 83 23 85 26 269
523 94 252 170 471 170 488 0 39 -22 89 -51 116 -28 25 -476 194 -529 199 -19
1 -44 0 -55 -3z"/>
<path d="M4307 7646 c-147 -85 -280 -164 -296 -175 -47 -34 -74 -101 -69 -169
4 -52 19 -82 169 -341 193 -334 195 -336 318 -336 l76 0 270 158 c152 88 284
172 302 191 38 41 57 104 49 161 -7 44 -297 558 -344 609 -37 39 -81 56 -149
56 -57 0 -65 -4 -326 -154z"/>
</g>
</svg>
