<?xml version="1.0" encoding="UTF-8" standalone="no"?>
<!-- Generator: Adobe Illustrator 16.0.0, SVG Export Plug-In . SVG Version: 6.00 Build 0)  -->

<svg
   version="1.1"
   id="Layer_1"
   x="0px"
   y="0px"
   width="537.26709"
   height="533.26373"
   viewBox="0 0 537.26709 533.26375"
   enable-background="new 0 0 512 620.985"
   xml:space="preserve"
   sodipodi:docname="Logo.svg"
   inkscape:version="1.2.2 (732a01da63, 2022-12-09)"
   xmlns:inkscape="http://www.inkscape.org/namespaces/inkscape"
   xmlns:sodipodi="http://sodipodi.sourceforge.net/DTD/sodipodi-0.dtd"
   xmlns="http://www.w3.org/2000/svg"
   xmlns:svg="http://www.w3.org/2000/svg"><defs
   id="defs133" /><sodipodi:namedview
   id="namedview131"
   pagecolor="#ffffff"
   bordercolor="#000000"
   borderopacity="0.25"
   inkscape:showpageshadow="2"
   inkscape:pageopacity="0.0"
   inkscape:pagecheckerboard="0"
   inkscape:deskcolor="#d1d1d1"
   showgrid="false"
   inkscape:zoom="0.66748796"
   inkscape:cx="-411.99245"
   inkscape:cy="495.8891"
   inkscape:window-width="2560"
   inkscape:window-height="1009"
   inkscape:window-x="-8"
   inkscape:window-y="-8"
   inkscape:window-maximized="1"
   inkscape:current-layer="Layer_1" />

<linearGradient
   id="SVGID_1_"
   gradientUnits="userSpaceOnUse"
   x1="-1585.1064"
   y1="-825.00201"
   x2="-1120.9043"
   y2="-825.00201">
	<stop
   offset="0"
   style="stop-color:#6BCCE2"
   id="stop4" />
	<stop
   offset="0.328"
   style="stop-color:#55A6DC"
   id="stop6" />
	<stop
   offset="1"
   style="stop-color:#7852A2"
   id="stop8" />
</linearGradient>


<linearGradient
   id="SVGID_2_"
   gradientUnits="userSpaceOnUse"
   x1="-1050"
   y1="-825"
   x2="-586"
   y2="-825">
	<stop
   offset="0"
   style="stop-color:#6BCCE2"
   id="stop15" />
	<stop
   offset="0.328"
   style="stop-color:#55A6DC"
   id="stop17" />
	<stop
   offset="1"
   style="stop-color:#7852A2"
   id="stop19" />
</linearGradient>





<linearGradient
   id="SVGID_3_"
   gradientUnits="userSpaceOnUse"
   x1="643.74799"
   y1="-847.36517"
   x2="948.02252"
   y2="-847.36517">
	<stop
   offset="0"
   style="stop-color:#6BCCE2"
   id="stop32" />
	<stop
   offset="0.328"
   style="stop-color:#55A6DC"
   id="stop34" />
	<stop
   offset="1"
   style="stop-color:#7852A2"
   id="stop36" />
</linearGradient>

<linearGradient
   id="SVGID_4_"
   gradientUnits="userSpaceOnUse"
   x1="557"
   y1="-825"
   x2="1035"
   y2="-825">
	<stop
   offset="0"
   style="stop-color:#6BCCE2"
   id="stop41" />
	<stop
   offset="0.328"
   style="stop-color:#55A6DC"
   id="stop43" />
	<stop
   offset="1"
   style="stop-color:#7852A2"
   id="stop45" />
</linearGradient>

<linearGradient
   id="SVGID_5_"
   gradientUnits="userSpaceOnUse"
   x1="-521"
   y1="-825"
   x2="-43"
   y2="-825">
	<stop
   offset="0"
   style="stop-color:#6BCCE2"
   id="stop50" />
	<stop
   offset="0.328"
   style="stop-color:#55A6DC"
   id="stop52" />
	<stop
   offset="1"
   style="stop-color:#7852A2"
   id="stop54" />
</linearGradient>

<linearGradient
   id="SVGID_6_"
   gradientUnits="userSpaceOnUse"
   x1="15.5"
   y1="-825"
   x2="496.5"
   y2="-825">
	<stop
   offset="0"
   style="stop-color:#6BCCE2"
   id="stop59" />
	<stop
   offset="0.328"
   style="stop-color:#55A6DC"
   id="stop61" />
	<stop
   offset="1"
   style="stop-color:#7852A2"
   id="stop63" />
</linearGradient>

<linearGradient
   id="SVGID_7_"
   gradientUnits="userSpaceOnUse"
   x1="15.5"
   y1="-287"
   x2="496.5"
   y2="-287">
	<stop
   offset="0"
   style="stop-color:#6BCCE2"
   id="stop68" />
	<stop
   offset="0.328"
   style="stop-color:#55A6DC"
   id="stop70" />
	<stop
   offset="1"
   style="stop-color:#7852A2"
   id="stop72" />
</linearGradient>

<linearGradient
   id="SVGID_8_"
   gradientUnits="userSpaceOnUse"
   x1="37.088902"
   y1="-286.50391"
   x2="480.39359"
   y2="-286.50391">
	<stop
   offset="0"
   style="stop-color:#62BACE"
   id="stop77" />
	<stop
   offset="0.328"
   style="stop-color:#4F98C9"
   id="stop79" />
	<stop
   offset="1"
   style="stop-color:#6E4A94"
   id="stop81" />
</linearGradient>
<g
   id="g441"
   transform="matrix(1.1169794,0,0,1.1169794,-17.313182,589.20664)"><path
     fill="url(#SVGID_7_)"
     d="M 426.059,-116.941 C 471.483,-162.365 496.5,-222.761 496.5,-287 c 0,-64.239 -25.017,-124.635 -70.441,-170.059 C 380.635,-502.483 320.239,-527.5 256,-527.5 c -64.239,0 -124.635,25.017 -170.059,70.441 C 40.517,-411.635 15.5,-351.239 15.5,-287 c 0,64.239 25.017,124.635 70.441,170.059 45.424,45.424 105.82,70.441 170.059,70.441 64.239,0 124.635,-25.017 170.059,-70.441 z M 487.5,-287 c 0,127.649 -103.851,231.5 -231.5,231.5 -127.649,0 -231.5,-103.851 -231.5,-231.5 0,-127.649 103.851,-231.5 231.5,-231.5 127.649,0 231.5,103.851 231.5,231.5 z m -338.222,-2.765 c -2.647,-1.815 -3.308,-5.443 -1.474,-8.07 l 24.852,-35.89 c 1.814,-2.647 5.423,-3.289 8.05,-1.474 2.647,1.813 3.291,5.424 1.477,8.069 l -24.856,35.891 c -1.114,1.626 -2.926,2.513 -4.779,2.513 -1.135,0 -2.269,-0.358 -3.27,-1.039 z m 34.946,74.048 -61.991,45.395 0.019,-22.602 c 0.019,-3.231 -2.57,-5.821 -5.783,-5.821 -0.019,0 -0.019,0 -0.019,0 -3.194,0 -5.783,2.569 -5.783,5.783 l -0.038,34.057 c 0,2.192 1.229,4.177 3.193,5.159 0.831,0.435 1.702,0.644 2.609,0.644 1.189,0 2.419,-0.359 3.421,-1.116 l 71.231,-52.144 c 2.59,-1.891 3.138,-5.519 1.229,-8.106 -1.872,-2.572 -5.501,-3.137 -8.088,-1.249 z m 210.143,33.925 c 5.801,0 10.488,-4.668 10.488,-10.471 0,-5.782 -4.688,-10.488 -10.488,-10.488 -3.65,0 -6.862,1.852 -8.752,4.686 h -35.929 v -26.384 c 0,-0.264 -0.093,-0.452 -0.112,-0.698 -0.076,-0.416 -0.112,-0.795 -0.266,-1.152 -0.093,-0.36 -0.264,-0.664 -0.472,-0.983 -0.169,-0.341 -0.359,-0.643 -0.604,-0.927 -0.265,-0.302 -0.565,-0.528 -0.87,-0.793 -0.206,-0.113 -0.319,-0.341 -0.548,-0.456 l -48.551,-28.329 c -0.891,-0.491 -1.872,-0.793 -2.856,-0.793 l -72.819,-0.755 v -8.752 l 12.208,-21.47 c 0.493,-0.887 0.758,-1.87 0.758,-2.872 v -40.71 -11.661 l 17.709,-7.805 h 12.983 v 11.755 h -14.931 c -3.175,0 -5.783,2.569 -5.783,5.783 v 37.894 c 0,1.55 0.624,3.006 1.699,4.102 1.098,1.078 2.57,1.702 4.084,1.702 0.036,0 0.036,0 0.058,0 l 31.353,-0.154 c 1.87,2.895 5.104,4.84 8.808,4.84 5.803,0 10.47,-4.686 10.47,-10.489 0,-5.802 -4.667,-10.471 -10.47,-10.471 -3.57,0 -6.709,1.777 -8.616,4.519 l -25.781,0.131 v -26.29 h 14.895 c 3.193,0 5.802,-2.587 5.802,-5.782 v -23.305 l 0.151,-71.551 0.321,-36.117 h 19.559 l -0.055,44.942 c -0.02,3.213 2.607,5.802 5.784,5.802 0.018,0 0.018,0 0.018,0 3.193,0 5.783,-2.589 5.783,-5.782 l 0.057,-50.746 v 0 0 c 0,-0.397 -0.112,-0.756 -0.208,-1.134 -0.076,-0.378 -0.076,-0.773 -0.227,-1.134 -0.112,-0.245 -0.322,-0.435 -0.491,-0.699 -0.245,-0.396 -0.434,-0.812 -0.757,-1.133 -0.057,-0.039 -0.093,-0.058 -0.133,-0.096 -1.038,-0.983 -2.418,-1.606 -3.968,-1.606 v 0 H 272.56 c -3.194,0 -5.781,2.57 -5.802,5.765 l -0.511,107.651 h -14.214 c -0.811,0 -1.605,0.189 -2.323,0.513 l -22.302,9.826 c -2.078,0.926 -3.438,2.985 -3.438,5.311 v 9.637 h -5.954 v -24.682 l 23.437,-11.717 c 1.359,0.642 2.853,1.039 4.44,1.039 5.802,0 10.489,-4.687 10.489,-10.489 0,-5.784 -4.688,-10.472 -10.489,-10.472 -5.614,0 -10.149,4.424 -10.414,9.962 l -20.694,10.337 -12.794,-25.496 30.372,-15.231 c 2.834,-1.419 4.023,-4.913 2.589,-7.768 -1.456,-2.874 -4.935,-4.026 -7.807,-2.609 l -35.53,17.843 c -1.38,0.697 -2.419,1.889 -2.911,3.344 -0.474,1.475 -0.359,3.063 0.321,4.442 l 17.387,34.643 v 28.12 c -0.662,0.435 -1.303,0.966 -1.776,1.665 l -51.954,76.789 c -1.796,2.664 -1.114,6.255 1.55,8.07 1.002,0.66 2.136,0.981 3.251,0.981 1.872,0 3.703,-0.907 4.818,-2.531 l 50.499,-74.674 h 11.171 v 33.379 l -11.643,20.466 -75.898,57.87 c -2.535,1.929 -3.045,5.576 -1.117,8.127 1.153,1.476 2.892,2.288 4.631,2.288 1.229,0 2.457,-0.398 3.515,-1.209 l 67.528,-51.481 v 4.309 c 0,3.193 2.552,5.762 5.725,5.82 l 77.035,0.792 15.044,8.791 v 34.962 c -2.815,1.891 -4.667,5.103 -4.667,8.75 0,5.785 4.667,10.488 10.509,10.488 5.782,0 10.471,-4.703 10.471,-10.488 0,-3.647 -1.854,-6.859 -4.688,-8.75 v -28.216 l 17.689,10.337 v 28.86 c 0,0.926 0.265,1.759 0.643,2.532 0.096,0.227 0.284,0.416 0.416,0.604 0.342,0.549 0.774,1.002 1.267,1.399 0.112,0.094 0.189,0.245 0.303,0.322 l 51.462,33.355 c 0.985,0.644 2.063,0.946 3.158,0.946 1.908,0 3.76,-0.908 4.876,-2.647 1.737,-2.701 0.981,-6.273 -1.722,-8.012 l -34.999,-22.698 h 22.11 c 1.886,2.816 5.098,4.667 8.748,4.667 z"
     id="path75"
     style="fill:url(#SVGID_7_)" /><path
     fill="url(#SVGID_8_)"
     d="m 66.813,-382.088 -3.535,7.392 2.395,2.736 c 0.589,0.675 1.067,1.099 1.432,1.273 0.292,0.14 0.614,0.124 0.967,-0.048 0.354,-0.172 0.783,-0.701 1.288,-1.59 l 0.521,0.248 -2.876,6.014 -0.521,-0.249 c 0.241,-0.865 0.306,-1.47 0.192,-1.812 -0.222,-0.694 -0.884,-1.662 -1.984,-2.904 l -12.502,-14.231 0.235,-0.493 19.061,0.949 c 1.533,0.076 2.594,-0.015 3.184,-0.269 0.588,-0.255 1.092,-0.761 1.513,-1.518 l 0.521,0.249 -3.603,7.533 -0.521,-0.249 c 0.325,-0.777 0.444,-1.353 0.356,-1.724 -0.088,-0.37 -0.286,-0.63 -0.596,-0.778 -0.413,-0.197 -1.155,-0.321 -2.227,-0.372 z m -1.23,-0.105 -9.266,-0.451 6.127,7.014 z m 1.177,-15.85 2.779,1.617 c -1.251,-2.111 -1.56,-3.713 -0.925,-4.801 0.286,-0.494 0.676,-0.816 1.165,-0.965 0.491,-0.147 0.933,-0.107 1.329,0.123 0.35,0.204 0.579,0.494 0.686,0.869 0.107,0.375 0.065,0.725 -0.122,1.049 -0.184,0.314 -0.545,0.578 -1.082,0.787 -0.539,0.211 -0.862,0.411 -0.973,0.6 -0.094,0.162 -0.105,0.39 -0.036,0.683 0.134,0.62 0.497,1.392 1.092,2.315 l 5.921,3.447 c 0.685,0.397 1.252,0.613 1.701,0.646 0.312,0.024 0.634,-0.064 0.969,-0.268 0.334,-0.203 0.663,-0.582 0.988,-1.141 l 0.485,0.283 -3.683,6.326 -0.485,-0.282 c 0.367,-0.629 0.54,-1.155 0.52,-1.575 -0.013,-0.309 -0.149,-0.6 -0.413,-0.873 -0.126,-0.134 -0.55,-0.41 -1.269,-0.828 l -4.789,-2.788 c -1.438,-0.837 -2.313,-1.307 -2.621,-1.408 -0.309,-0.101 -0.57,-0.109 -0.789,-0.026 -0.218,0.085 -0.394,0.244 -0.53,0.478 -0.162,0.279 -0.277,0.633 -0.347,1.063 l -0.564,-0.148 0.664,-4.615 z m 2.219,-11.757 3.945,2.552 1.813,-2.805 0.918,0.594 -1.815,2.805 7.785,5.036 c 0.779,0.503 1.375,0.73 1.789,0.683 0.415,-0.048 0.735,-0.246 0.962,-0.596 0.186,-0.289 0.277,-0.625 0.274,-1.013 -0.004,-0.386 -0.134,-0.767 -0.387,-1.142 l 0.33,-0.512 c 0.66,0.861 1.023,1.71 1.095,2.549 0.07,0.838 -0.086,1.555 -0.471,2.149 -0.26,0.401 -0.626,0.723 -1.098,0.963 -0.472,0.24 -0.974,0.318 -1.508,0.233 -0.533,-0.085 -1.232,-0.408 -2.098,-0.967 l -8.073,-5.223 -1.229,1.9 -0.434,-0.28 c 0.12,-0.604 0.112,-1.306 -0.021,-2.105 -0.135,-0.8 -0.388,-1.599 -0.763,-2.398 -0.201,-0.416 -0.629,-1.089 -1.279,-2.018 z m 2.417,-9.236 c 0.252,-0.356 0.593,-0.571 1.02,-0.645 0.43,-0.072 0.821,0.018 1.179,0.271 0.355,0.252 0.572,0.595 0.649,1.025 0.077,0.43 -0.011,0.824 -0.265,1.182 -0.252,0.355 -0.597,0.571 -1.031,0.646 -0.435,0.073 -0.831,-0.015 -1.188,-0.269 -0.355,-0.252 -0.571,-0.593 -0.645,-1.021 -0.072,-0.427 0.021,-0.825 0.281,-1.189 z m 6.847,3.267 9.37,6.646 c 0.729,0.518 1.254,0.809 1.571,0.874 0.316,0.065 0.608,0.036 0.875,-0.087 0.267,-0.124 0.595,-0.461 0.985,-1.014 l 0.459,0.326 -4.017,5.665 -0.459,-0.325 c 0.403,-0.568 0.619,-0.989 0.646,-1.263 0.028,-0.273 -0.044,-0.558 -0.218,-0.854 -0.174,-0.295 -0.62,-0.698 -1.342,-1.21 l -4.495,-3.188 c -1.264,-0.896 -2.11,-1.438 -2.538,-1.627 -0.313,-0.134 -0.568,-0.175 -0.766,-0.122 -0.195,0.052 -0.373,0.188 -0.528,0.409 -0.169,0.237 -0.311,0.571 -0.424,1.001 l -0.584,-0.147 1.065,-4.525 z m 7.219,-6.997 7.401,5.787 c 1.05,0.821 1.805,1.226 2.262,1.214 0.598,-0.021 1.096,-0.286 1.493,-0.795 l 0.798,-1.021 0.442,0.347 -5.259,6.726 -0.442,-0.346 0.394,-0.504 c 0.257,-0.328 0.409,-0.691 0.456,-1.09 0.048,-0.398 -0.028,-0.759 -0.227,-1.079 -0.199,-0.32 -0.699,-0.794 -1.503,-1.423 l -7.402,-5.787 -1.711,2.188 -0.885,-0.692 1.711,-2.188 -0.738,-0.577 c -1.122,-0.878 -1.933,-1.802 -2.429,-2.771 -0.498,-0.969 -0.695,-2.013 -0.595,-3.129 0.101,-1.117 0.514,-2.139 1.238,-3.064 0.671,-0.861 1.568,-1.435 2.691,-1.721 0.739,-0.187 1.34,-0.101 1.798,0.259 0.246,0.191 0.396,0.48 0.446,0.862 0.05,0.383 -0.021,0.697 -0.214,0.943 -0.147,0.189 -0.37,0.335 -0.669,0.438 -0.299,0.104 -0.79,0.133 -1.474,0.087 -0.685,-0.046 -1.203,-0.003 -1.557,0.129 -0.356,0.132 -0.654,0.354 -0.898,0.666 -0.294,0.377 -0.443,0.775 -0.447,1.194 -0.005,0.42 0.159,0.852 0.491,1.297 0.332,0.445 1.375,1.353 3.131,2.725 l 0.811,0.635 2.27,-2.902 0.885,0.691 z m -1.072,-12.859 c 0.285,-0.331 0.645,-0.514 1.077,-0.546 0.433,-0.033 0.814,0.093 1.146,0.378 0.332,0.285 0.516,0.646 0.553,1.082 0.036,0.437 -0.088,0.82 -0.374,1.151 -0.284,0.332 -0.646,0.514 -1.087,0.548 -0.44,0.032 -0.825,-0.094 -1.157,-0.379 -0.331,-0.284 -0.514,-0.644 -0.547,-1.076 -0.032,-0.432 0.097,-0.819 0.389,-1.158 z m 6.512,3.893 8.71,7.491 c 0.679,0.584 1.172,0.923 1.481,1.018 0.311,0.095 0.604,0.093 0.88,-0.006 0.277,-0.098 0.636,-0.403 1.077,-0.916 l 0.426,0.366 -4.529,5.266 -0.426,-0.366 c 0.455,-0.528 0.708,-0.927 0.762,-1.197 0.054,-0.27 0.008,-0.56 -0.137,-0.869 -0.145,-0.311 -0.554,-0.754 -1.225,-1.331 l -4.176,-3.592 c -1.176,-1.012 -1.968,-1.631 -2.377,-1.858 -0.299,-0.161 -0.549,-0.226 -0.75,-0.192 -0.199,0.033 -0.389,0.152 -0.564,0.357 -0.191,0.222 -0.362,0.54 -0.515,0.957 l -0.569,-0.199 1.484,-4.407 z m 18.029,-5.718 c 1.091,1.583 1.613,3.13 1.566,4.644 -0.047,1.514 -0.544,2.762 -1.487,3.744 -1.125,1.17 -2.597,1.719 -4.416,1.645 -1.819,-0.074 -3.565,-0.915 -5.239,-2.523 -1.62,-1.557 -2.474,-3.305 -2.56,-5.242 -0.086,-1.937 0.519,-3.581 1.816,-4.932 0.973,-1.014 2.042,-1.588 3.205,-1.725 1.164,-0.138 2.035,0.071 2.613,0.627 0.285,0.273 0.427,0.587 0.427,0.94 -10e-4,0.354 -0.159,0.694 -0.476,1.024 -0.427,0.443 -0.89,0.641 -1.391,0.592 -0.281,-0.024 -0.662,-0.229 -1.144,-0.613 -0.482,-0.384 -0.967,-0.556 -1.451,-0.517 -0.479,0.046 -0.94,0.302 -1.386,0.767 -0.723,0.75 -1.025,1.622 -0.91,2.613 0.151,1.313 0.831,2.551 2.039,3.713 1.23,1.182 2.606,1.924 4.128,2.225 1.522,0.301 2.778,-0.063 3.766,-1.091 0.707,-0.735 1.09,-1.638 1.149,-2.706 0.052,-0.743 -0.189,-1.747 -0.722,-3.01 z m -7.244,-16.144 c 0.319,-0.297 0.696,-0.438 1.13,-0.424 0.436,0.016 0.8,0.183 1.099,0.503 0.298,0.319 0.44,0.698 0.43,1.136 -0.013,0.438 -0.178,0.805 -0.497,1.104 -0.32,0.298 -0.701,0.438 -1.142,0.424 -0.442,-0.016 -0.812,-0.184 -1.109,-0.503 -0.298,-0.32 -0.439,-0.696 -0.424,-1.13 0.014,-0.435 0.185,-0.805 0.513,-1.11 z m 6.045,4.586 7.832,8.403 c 0.609,0.655 1.063,1.047 1.361,1.175 0.297,0.128 0.589,0.159 0.874,0.092 0.286,-0.067 0.676,-0.332 1.172,-0.793 l 0.382,0.412 -5.081,4.734 -0.384,-0.41 c 0.512,-0.476 0.809,-0.844 0.891,-1.106 0.083,-0.262 0.069,-0.556 -0.04,-0.88 -0.111,-0.324 -0.468,-0.81 -1.07,-1.457 l -3.757,-4.029 c -1.057,-1.135 -1.776,-1.838 -2.156,-2.109 -0.28,-0.193 -0.522,-0.285 -0.725,-0.273 -0.204,0.012 -0.404,0.109 -0.602,0.294 -0.214,0.198 -0.42,0.497 -0.616,0.895 l -0.544,-0.262 1.96,-4.216 z m 17.591,1.486 c -0.4,1.811 -0.688,2.903 -0.862,3.279 -0.264,0.56 -0.641,1.043 -1.127,1.449 -0.76,0.634 -1.602,0.896 -2.526,0.786 -0.924,-0.109 -1.739,-0.587 -2.446,-1.435 -0.447,-0.535 -0.713,-1.099 -0.8,-1.689 -0.126,-0.817 0.015,-1.804 0.427,-2.96 0.41,-1.155 1.273,-2.863 2.585,-5.125 l -0.36,-0.43 c -0.913,-1.096 -1.713,-1.701 -2.4,-1.819 -0.688,-0.117 -1.363,0.101 -2.025,0.655 -0.504,0.419 -0.792,0.889 -0.86,1.406 -0.076,0.525 0.032,0.963 0.325,1.314 l 0.604,0.676 c 0.307,0.367 0.448,0.73 0.428,1.086 -0.021,0.356 -0.184,0.661 -0.487,0.914 -0.295,0.247 -0.624,0.345 -0.984,0.294 -0.361,-0.052 -0.691,-0.257 -0.992,-0.616 -0.573,-0.688 -0.748,-1.611 -0.524,-2.773 0.223,-1.162 0.97,-2.272 2.24,-3.333 0.975,-0.813 1.91,-1.315 2.806,-1.509 0.678,-0.146 1.35,-0.048 2.014,0.293 0.43,0.224 1.089,0.867 1.975,1.93 l 3.11,3.727 c 0.873,1.047 1.429,1.672 1.666,1.873 0.235,0.203 0.433,0.306 0.591,0.309 0.16,0.004 0.299,-0.045 0.418,-0.145 0.128,-0.107 0.216,-0.229 0.267,-0.364 0.08,-0.243 0.16,-0.806 0.24,-1.685 l 0.561,0.671 c 0.104,1.945 -0.25,3.258 -1.065,3.938 -0.392,0.327 -0.816,0.451 -1.274,0.372 -0.463,-0.078 -0.97,-0.442 -1.525,-1.089 z m -0.649,-0.781 -3.49,-4.182 c -0.807,1.486 -1.302,2.476 -1.488,2.968 -0.337,0.879 -0.482,1.623 -0.433,2.233 0.048,0.609 0.262,1.143 0.642,1.598 0.48,0.576 1.051,0.91 1.711,1.002 0.66,0.094 1.214,-0.047 1.66,-0.42 0.607,-0.506 1.073,-1.573 1.398,-3.199 z m -2.847,-21.978 11.335,15.203 c 0.536,0.718 0.942,1.154 1.221,1.31 0.279,0.156 0.571,0.214 0.878,0.173 0.308,-0.041 0.757,-0.282 1.35,-0.724 l 0.336,0.45 -5.619,4.189 -0.336,-0.451 c 0.526,-0.392 0.844,-0.713 0.955,-0.965 0.111,-0.251 0.128,-0.543 0.049,-0.874 -0.077,-0.331 -0.381,-0.851 -0.91,-1.56 l -7.761,-10.411 c -0.964,-1.293 -1.587,-2.066 -1.866,-2.319 -0.278,-0.252 -0.523,-0.384 -0.733,-0.396 -0.21,-0.012 -0.415,0.057 -0.615,0.206 -0.217,0.162 -0.442,0.434 -0.677,0.815 l -0.54,-0.279 2.371,-3.948 z m 31.411,5.168 0.302,0.494 -7.741,4.725 -0.3,-0.493 0.64,-0.39 c 0.746,-0.456 1.154,-1.005 1.227,-1.646 0.04,-0.415 -0.271,-1.163 -0.933,-2.247 l -7.124,-11.67 c -0.559,-0.915 -0.985,-1.484 -1.279,-1.707 -0.226,-0.167 -0.523,-0.247 -0.896,-0.239 -0.521,0.026 -0.994,0.168 -1.421,0.429 l -0.64,0.391 -0.3,-0.493 7.739,-4.725 0.301,0.493 -0.652,0.397 c -0.736,0.45 -1.141,0.996 -1.213,1.638 -0.049,0.42 0.258,1.171 0.919,2.255 l 7.124,11.671 c 0.56,0.914 0.985,1.482 1.279,1.705 0.225,0.168 0.526,0.245 0.908,0.231 0.513,-0.021 0.982,-0.159 1.409,-0.42 z m -0.24,-12.573 c 0.541,-2.566 1.483,-4.205 2.828,-4.912 0.69,-0.364 1.375,-0.505 2.055,-0.421 0.679,0.083 1.374,0.443 2.085,1.08 0.494,0.445 1.041,1.239 1.643,2.38 l 2.845,5.4 c 0.423,0.801 0.772,1.311 1.051,1.527 0.224,0.177 0.481,0.271 0.775,0.28 0.293,0.011 0.743,-0.146 1.351,-0.465 l 0.263,0.497 -6.256,3.295 -0.263,-0.497 0.263,-0.138 c 0.589,-0.311 0.955,-0.617 1.094,-0.921 0.142,-0.303 0.165,-0.653 0.072,-1.052 -0.035,-0.158 -0.244,-0.6 -0.628,-1.327 l -2.728,-5.179 c -0.606,-1.151 -1.197,-1.907 -1.771,-2.27 -0.572,-0.362 -1.213,-0.357 -1.923,0.016 -1.096,0.578 -1.871,1.751 -2.327,3.52 l 3.514,6.67 c 0.45,0.856 0.78,1.359 0.989,1.508 0.269,0.199 0.549,0.302 0.84,0.308 0.292,0.005 0.782,-0.175 1.474,-0.538 l 0.261,0.497 -6.255,3.296 -0.262,-0.497 0.275,-0.146 c 0.646,-0.34 0.993,-0.732 1.048,-1.178 0.053,-0.445 -0.164,-1.129 -0.648,-2.05 l -2.474,-4.695 c -0.801,-1.519 -1.322,-2.426 -1.566,-2.721 -0.242,-0.295 -0.467,-0.465 -0.673,-0.51 -0.205,-0.044 -0.429,-0.003 -0.668,0.122 -0.258,0.137 -0.53,0.368 -0.816,0.695 l -0.469,-0.389 2.996,-3.554 0.594,-0.313 z m 11.619,-13.889 1.941,4.279 3.042,-1.38 0.45,0.994 -3.041,1.381 3.83,8.442 c 0.382,0.844 0.761,1.357 1.136,1.542 0.375,0.184 0.751,0.189 1.131,0.018 0.312,-0.142 0.571,-0.376 0.777,-0.703 0.205,-0.328 0.303,-0.718 0.292,-1.17 l 0.555,-0.252 c 0.09,1.08 -0.063,1.991 -0.457,2.735 -0.393,0.744 -0.913,1.263 -1.557,1.555 -0.436,0.198 -0.917,0.271 -1.444,0.218 -0.525,-0.053 -0.99,-0.259 -1.395,-0.618 -0.402,-0.36 -0.817,-1.009 -1.242,-1.947 l -3.972,-8.757 -2.061,0.936 -0.213,-0.469 c 0.426,-0.444 0.799,-1.04 1.118,-1.784 0.318,-0.745 0.536,-1.556 0.654,-2.431 0.055,-0.459 0.059,-1.256 0.013,-2.389 z m 10.89,6.262 c 0.761,1.982 1.844,3.348 3.251,4.095 1.408,0.749 2.766,0.867 4.074,0.358 0.874,-0.34 1.538,-0.875 1.997,-1.605 0.458,-0.731 0.679,-1.764 0.664,-3.097 l 0.563,0.115 c 0.313,1.408 0.191,2.848 -0.363,4.319 -0.555,1.473 -1.569,2.495 -3.045,3.068 -1.6,0.623 -3.211,0.532 -4.836,-0.271 -1.624,-0.803 -2.846,-2.257 -3.664,-4.361 -0.885,-2.278 -0.993,-4.284 -0.32,-6.013 0.673,-1.73 1.892,-2.938 3.656,-3.625 1.494,-0.58 2.912,-0.566 4.254,0.045 1.345,0.611 2.336,1.741 2.978,3.39 z m -0.327,-0.843 6.167,-2.398 c -0.38,-0.834 -0.716,-1.396 -1.006,-1.686 -0.455,-0.449 -0.982,-0.734 -1.582,-0.858 -0.602,-0.123 -1.163,-0.083 -1.687,0.12 -0.806,0.313 -1.403,0.906 -1.796,1.778 -0.391,0.873 -0.424,1.887 -0.096,3.044 z m 12.075,-17.524 5.894,18.026 c 0.277,0.851 0.522,1.395 0.737,1.631 0.215,0.236 0.473,0.384 0.777,0.443 0.304,0.06 0.807,-0.025 1.51,-0.255 l 0.174,0.534 -6.661,2.177 -0.175,-0.533 c 0.623,-0.204 1.027,-0.407 1.213,-0.61 0.185,-0.203 0.294,-0.474 0.325,-0.813 0.031,-0.339 -0.09,-0.929 -0.363,-1.769 l -4.036,-12.344 c -0.501,-1.533 -0.844,-2.464 -1.028,-2.793 -0.184,-0.328 -0.373,-0.531 -0.567,-0.609 -0.196,-0.079 -0.412,-0.08 -0.649,-0.002 -0.259,0.084 -0.558,0.27 -0.902,0.558 l -0.422,-0.438 3.507,-2.985 z m 9.18,-2.72 5.123,18.26 c 0.242,0.861 0.464,1.414 0.668,1.66 0.204,0.245 0.457,0.404 0.759,0.477 0.301,0.072 0.807,0.008 1.52,-0.191 l 0.15,0.54 -6.747,1.894 -0.152,-0.541 c 0.633,-0.177 1.044,-0.363 1.237,-0.559 0.195,-0.193 0.314,-0.46 0.36,-0.797 0.047,-0.337 -0.05,-0.932 -0.29,-1.783 l -3.507,-12.503 c -0.437,-1.554 -0.739,-2.498 -0.91,-2.833 -0.169,-0.336 -0.351,-0.548 -0.543,-0.635 -0.191,-0.087 -0.407,-0.096 -0.647,-0.029 -0.261,0.074 -0.568,0.247 -0.925,0.52 l -0.403,-0.454 3.631,-2.835 z m 11.038,4.938 2.63,11.183 c 0.205,0.871 0.404,1.436 0.601,1.694 0.193,0.26 0.432,0.431 0.713,0.514 0.281,0.084 0.751,0.048 1.41,-0.107 l 0.128,0.548 -6.761,1.59 -0.13,-0.547 c 0.68,-0.159 1.12,-0.333 1.322,-0.52 0.202,-0.186 0.336,-0.447 0.4,-0.783 0.065,-0.336 -0.002,-0.936 -0.205,-1.796 l -1.262,-5.364 c -0.354,-1.508 -0.631,-2.475 -0.827,-2.899 -0.146,-0.308 -0.311,-0.506 -0.493,-0.598 -0.182,-0.091 -0.404,-0.104 -0.668,-0.043 -0.283,0.066 -0.61,0.224 -0.979,0.471 l -0.342,-0.497 3.793,-2.688 z m -2.973,-6.981 c 0.425,-0.1 0.822,-0.036 1.191,0.192 0.369,0.228 0.604,0.556 0.704,0.981 0.1,0.426 0.036,0.825 -0.19,1.199 -0.229,0.374 -0.555,0.611 -0.979,0.711 -0.427,0.101 -0.826,0.034 -1.201,-0.197 -0.376,-0.233 -0.614,-0.563 -0.713,-0.988 -0.101,-0.425 -0.036,-0.822 0.191,-1.191 0.229,-0.369 0.56,-0.605 0.997,-0.707 z m 12.758,14.632 c -0.934,-0.271 -1.697,-0.744 -2.289,-1.419 -0.592,-0.673 -0.967,-1.466 -1.124,-2.379 -0.241,-1.395 0.076,-2.685 0.954,-3.872 0.877,-1.187 2.136,-1.922 3.775,-2.205 1.344,-0.232 2.564,-0.105 3.662,0.38 l 2.983,-0.516 c 0.44,-0.076 0.699,-0.108 0.776,-0.095 0.076,0.013 0.135,0.048 0.177,0.104 0.077,0.082 0.137,0.24 0.177,0.477 0.047,0.267 0.053,0.456 0.019,0.567 -0.021,0.057 -0.068,0.106 -0.14,0.15 -0.072,0.044 -0.328,0.104 -0.769,0.181 l -1.83,0.316 c 0.702,0.64 1.151,1.533 1.35,2.682 0.228,1.313 -0.081,2.521 -0.924,3.629 -0.844,1.106 -2.111,1.807 -3.803,2.1 -0.697,0.12 -1.427,0.141 -2.19,0.062 -0.386,0.468 -0.631,0.861 -0.738,1.181 -0.108,0.32 -0.146,0.582 -0.109,0.787 0.029,0.175 0.145,0.33 0.341,0.464 0.198,0.136 0.549,0.195 1.054,0.183 0.294,-0.009 1.018,-0.098 2.172,-0.266 2.121,-0.313 3.502,-0.479 4.145,-0.494 0.977,-0.031 1.799,0.19 2.467,0.666 0.668,0.476 1.075,1.134 1.221,1.975 0.199,1.158 -0.155,2.34 -1.066,3.543 -1.341,1.773 -3.297,2.883 -5.871,3.328 -1.979,0.342 -3.729,0.186 -5.246,-0.471 -0.857,-0.38 -1.334,-0.847 -1.43,-1.4 -0.043,-0.246 -0.028,-0.502 0.042,-0.768 0.107,-0.409 0.375,-1 0.802,-1.771 0.056,-0.104 0.483,-0.748 1.281,-1.933 -0.588,-0.225 -1.014,-0.444 -1.278,-0.657 -0.265,-0.214 -0.423,-0.479 -0.478,-0.797 -0.063,-0.358 0.012,-0.804 0.22,-1.337 0.207,-0.532 0.763,-1.33 1.667,-2.395 z m 1.182,-9.091 c -0.758,0.131 -1.341,0.544 -1.749,1.237 -0.408,0.694 -0.504,1.666 -0.287,2.917 0.28,1.62 0.846,2.815 1.697,3.587 0.649,0.585 1.385,0.806 2.206,0.664 0.777,-0.135 1.369,-0.538 1.771,-1.209 0.401,-0.672 0.494,-1.633 0.277,-2.884 -0.281,-1.63 -0.856,-2.846 -1.724,-3.646 -0.639,-0.586 -1.369,-0.808 -2.191,-0.666 z m -0.448,14.255 c -0.391,0.605 -0.671,1.155 -0.839,1.649 -0.169,0.494 -0.22,0.931 -0.153,1.31 0.084,0.492 0.457,0.872 1.115,1.138 1.135,0.459 2.672,0.521 4.61,0.185 1.845,-0.319 3.15,-0.88 3.914,-1.683 0.763,-0.803 1.082,-1.573 0.954,-2.312 -0.092,-0.533 -0.419,-0.867 -0.98,-1.003 -0.572,-0.133 -1.652,-0.084 -3.238,0.148 -2.317,0.338 -4.111,0.527 -5.383,0.568 z m 13.277,-11.05 c 0.2,2.113 0.877,3.72 2.031,4.817 1.154,1.099 2.431,1.579 3.829,1.44 0.931,-0.093 1.716,-0.43 2.354,-1.01 0.638,-0.58 1.128,-1.516 1.47,-2.805 l 0.513,0.264 c -0.077,1.439 -0.58,2.794 -1.511,4.063 -0.931,1.269 -2.182,1.98 -3.756,2.137 -1.709,0.17 -3.238,-0.352 -4.586,-1.561 -1.349,-1.21 -2.135,-2.938 -2.357,-5.186 -0.241,-2.434 0.195,-4.393 1.308,-5.878 1.113,-1.485 2.611,-2.321 4.496,-2.509 1.594,-0.158 2.957,0.238 4.085,1.188 1.13,0.949 1.782,2.304 1.957,4.064 z m -0.089,-0.901 6.586,-0.653 c -0.142,-0.906 -0.314,-1.537 -0.518,-1.894 -0.315,-0.555 -0.747,-0.972 -1.292,-1.252 -0.546,-0.281 -1.097,-0.394 -1.657,-0.338 -0.859,0.085 -1.595,0.495 -2.207,1.23 -0.613,0.735 -0.916,1.704 -0.912,2.907 z m 16.19,-3.127 c 1.622,-2.062 3.192,-3.112 4.712,-3.152 0.78,-0.021 1.456,0.157 2.027,0.532 0.572,0.376 1.036,1.007 1.394,1.892 0.245,0.619 0.384,1.573 0.417,2.862 l 0.16,6.102 c 0.023,0.904 0.112,1.517 0.268,1.835 0.12,0.257 0.311,0.455 0.568,0.594 0.26,0.139 0.731,0.199 1.418,0.182 l 0.015,0.563 -7.067,0.185 -0.015,-0.562 0.296,-0.008 c 0.666,-0.018 1.129,-0.132 1.389,-0.342 0.26,-0.209 0.437,-0.513 0.53,-0.911 0.037,-0.157 0.046,-0.646 0.024,-1.468 l -0.153,-5.852 c -0.034,-1.301 -0.229,-2.24 -0.581,-2.818 -0.354,-0.579 -0.931,-0.858 -1.732,-0.837 -1.237,0.032 -2.452,0.74 -3.645,2.125 l 0.197,7.536 c 0.025,0.967 0.099,1.564 0.219,1.79 0.154,0.298 0.36,0.514 0.618,0.647 0.259,0.134 0.777,0.19 1.558,0.17 l 0.016,0.562 -7.069,0.186 -0.014,-0.562 0.312,-0.009 c 0.729,-0.019 1.215,-0.217 1.46,-0.593 0.246,-0.375 0.354,-1.084 0.327,-2.123 l -0.14,-5.306 c -0.044,-1.717 -0.11,-2.761 -0.198,-3.134 -0.088,-0.372 -0.215,-0.624 -0.379,-0.755 -0.165,-0.131 -0.383,-0.192 -0.652,-0.186 -0.293,0.008 -0.639,0.095 -1.039,0.261 l -0.25,-0.556 4.262,-1.859 0.671,-0.019 z m 24.116,6.616 c -0.473,1.863 -1.293,3.275 -2.463,4.237 -1.169,0.962 -2.435,1.411 -3.797,1.348 -1.621,-0.074 -3.003,-0.82 -4.146,-2.238 -1.143,-1.417 -1.66,-3.285 -1.553,-5.603 0.104,-2.246 0.856,-4.039 2.257,-5.381 1.401,-1.342 3.036,-1.969 4.906,-1.883 1.404,0.066 2.54,0.49 3.411,1.275 0.869,0.785 1.286,1.578 1.249,2.379 -0.02,0.395 -0.161,0.708 -0.427,0.94 -0.266,0.232 -0.627,0.338 -1.084,0.317 -0.614,-0.028 -1.066,-0.248 -1.361,-0.657 -0.167,-0.226 -0.265,-0.647 -0.293,-1.263 -0.028,-0.616 -0.218,-1.094 -0.566,-1.434 -0.35,-0.328 -0.846,-0.508 -1.49,-0.537 -1.041,-0.048 -1.895,0.299 -2.564,1.038 -0.889,0.979 -1.372,2.306 -1.45,3.979 -0.078,1.705 0.271,3.229 1.048,4.572 0.775,1.343 1.877,2.047 3.299,2.113 1.02,0.047 1.95,-0.259 2.794,-0.918 0.593,-0.452 1.189,-1.294 1.788,-2.527 z m 4.823,-3.023 c -0.252,2.107 0.07,3.82 0.967,5.138 0.897,1.318 2.043,2.057 3.438,2.216 0.931,0.106 1.769,-0.058 2.515,-0.49 0.746,-0.432 1.423,-1.243 2.029,-2.431 l 0.446,0.365 c -0.38,1.392 -1.158,2.608 -2.334,3.652 -1.179,1.044 -2.552,1.477 -4.124,1.296 -1.705,-0.195 -3.089,-1.026 -4.152,-2.493 -1.063,-1.468 -1.466,-3.323 -1.209,-5.566 0.278,-2.43 1.117,-4.253 2.519,-5.47 1.4,-1.217 3.042,-1.718 4.924,-1.503 1.593,0.183 2.84,0.856 3.743,2.023 0.904,1.166 1.255,2.628 1.054,4.385 z m 0.102,-0.9 6.575,0.753 c 0.052,-0.915 0.017,-1.568 -0.106,-1.96 -0.192,-0.608 -0.525,-1.107 -0.999,-1.497 -0.475,-0.39 -0.989,-0.616 -1.548,-0.68 -0.858,-0.099 -1.664,0.147 -2.418,0.736 -0.753,0.59 -1.254,1.473 -1.504,2.648 z m 37.715,3.128 6.35,1.633 -0.144,0.559 c -0.896,-0.154 -1.593,-0.127 -2.094,0.083 -0.5,0.21 -1.398,1.002 -2.697,2.376 -1.299,1.374 -2.682,2.614 -4.147,3.719 0.628,1.279 1.24,2.219 1.839,2.818 0.597,0.6 1.253,0.992 1.969,1.176 0.695,0.179 1.334,0.141 1.914,-0.112 0.581,-0.253 1.066,-0.722 1.458,-1.406 l 0.454,0.553 c -0.738,1.324 -1.608,2.219 -2.608,2.682 -0.999,0.462 -2.049,0.552 -3.147,0.27 -0.825,-0.213 -1.607,-0.652 -2.343,-1.319 -0.737,-0.668 -1.471,-1.665 -2.205,-2.993 -1.534,0.788 -2.856,1.267 -3.971,1.437 -1.113,0.171 -2.239,0.109 -3.378,-0.184 -1.662,-0.428 -2.869,-1.211 -3.617,-2.349 -0.75,-1.138 -0.967,-2.321 -0.65,-3.552 0.313,-1.219 1.065,-2.323 2.254,-3.312 1.188,-0.989 3.16,-1.823 5.913,-2.501 -0.204,-1.17 -0.306,-2.111 -0.305,-2.826 10e-4,-0.714 0.081,-1.379 0.239,-1.993 0.442,-1.724 1.415,-2.875 2.918,-3.456 1.17,-0.451 2.384,-0.515 3.644,-0.191 1.2,0.309 2.086,0.916 2.659,1.82 0.573,0.905 0.727,1.876 0.458,2.914 -0.274,1.068 -0.881,1.912 -1.818,2.53 -0.937,0.618 -2.457,1.167 -4.557,1.648 0.693,2.606 1.492,5.036 2.396,7.288 2.318,-1.66 3.664,-3.216 4.036,-4.667 0.12,-0.464 0.075,-0.916 -0.135,-1.356 -0.15,-0.329 -0.427,-0.571 -0.828,-0.729 z m -5.962,8.958 c -0.864,-2.156 -1.445,-3.718 -1.744,-4.688 -0.298,-0.968 -0.596,-2.151 -0.892,-3.549 -1.389,0.384 -2.495,0.916 -3.319,1.596 -0.825,0.679 -1.363,1.508 -1.614,2.485 -0.278,1.078 -0.174,2.115 0.312,3.11 0.486,0.995 1.317,1.645 2.496,1.947 0.636,0.163 1.28,0.194 1.935,0.095 0.655,-0.099 1.596,-0.432 2.826,-0.996 z m 0.086,-10.051 c 1.402,-0.273 2.512,-0.708 3.325,-1.305 0.815,-0.597 1.341,-1.358 1.579,-2.284 0.188,-0.727 0.117,-1.384 -0.209,-1.973 -0.327,-0.589 -0.823,-0.969 -1.488,-1.14 -0.877,-0.226 -1.619,-0.092 -2.223,0.403 -0.606,0.494 -0.983,1.033 -1.134,1.618 -0.128,0.493 -0.184,1.067 -0.169,1.721 0.015,0.655 0.122,1.642 0.319,2.96 z m 39.006,28.007 -5.188,-2.241 -2.649,-11.926 c -0.495,-0.191 -0.896,-0.354 -1.2,-0.485 -0.125,-0.054 -0.258,-0.113 -0.398,-0.181 -0.142,-0.066 -0.287,-0.138 -0.436,-0.214 l -2.44,5.646 c -0.527,1.223 -0.723,2.04 -0.583,2.451 0.182,0.577 0.635,1.022 1.361,1.337 l 0.759,0.328 -0.229,0.529 -8.324,-3.598 0.23,-0.529 0.729,0.315 c 0.822,0.355 1.525,0.342 2.109,-0.041 0.328,-0.209 0.731,-0.868 1.212,-1.976 l 5.425,-12.551 c 0.528,-1.223 0.722,-2.04 0.582,-2.452 -0.19,-0.581 -0.653,-1.03 -1.39,-1.349 l -0.729,-0.315 0.229,-0.53 7.077,3.059 c 2.063,0.893 3.521,1.7 4.368,2.424 0.85,0.725 1.441,1.638 1.775,2.74 0.333,1.102 0.259,2.212 -0.223,3.33 -0.517,1.193 -1.354,2.062 -2.513,2.604 -1.158,0.543 -2.633,0.643 -4.422,0.299 l 1.603,7.308 c 0.363,1.676 0.784,2.867 1.261,3.571 0.479,0.706 1.223,1.345 2.232,1.918 z m -9.481,-15.949 c 0.181,0.078 0.337,0.148 0.47,0.212 0.13,0.063 0.239,0.112 0.325,0.149 1.854,0.801 3.424,1.003 4.712,0.607 1.286,-0.395 2.199,-1.214 2.736,-2.456 0.523,-1.213 0.57,-2.363 0.14,-3.45 -0.432,-1.088 -1.273,-1.902 -2.523,-2.442 -0.555,-0.24 -1.343,-0.473 -2.367,-0.7 z m 22.819,6.631 c 1.901,1.033 3.036,2.585 3.403,4.655 0.308,1.767 0.026,3.45 -0.843,5.05 -0.611,1.125 -1.498,2.116 -2.665,2.976 -1.165,0.858 -2.38,1.323 -3.645,1.395 -1.264,0.071 -2.477,-0.209 -3.638,-0.84 -1.893,-1.028 -2.986,-2.6 -3.283,-4.714 -0.251,-1.783 0.053,-3.466 0.913,-5.048 0.626,-1.15 1.534,-2.142 2.724,-2.969 1.189,-0.828 2.398,-1.261 3.626,-1.299 1.229,-0.036 2.365,0.229 3.408,0.794 z m -0.91,0.661 c -0.484,-0.263 -1.05,-0.384 -1.695,-0.361 -0.646,0.022 -1.316,0.313 -2.01,0.872 -0.694,0.558 -1.349,1.404 -1.966,2.537 -0.993,1.829 -1.486,3.604 -1.479,5.324 0.007,1.72 0.604,2.904 1.793,3.551 0.886,0.48 1.817,0.513 2.79,0.094 0.974,-0.418 1.944,-1.519 2.913,-3.302 1.212,-2.231 1.687,-4.247 1.421,-6.049 -0.173,-1.231 -0.762,-2.12 -1.767,-2.666 z m 11.088,8.606 c 2.207,-0.863 3.983,-0.86 5.329,0.011 1.231,0.796 1.966,2.019 2.202,3.665 0.235,1.646 -0.237,3.382 -1.42,5.208 -1.378,2.132 -3.197,3.39 -5.454,3.775 -1.938,0.333 -3.654,0.015 -5.148,-0.952 -0.698,-0.452 -1.327,-1.038 -1.883,-1.758 -0.557,-0.72 -1.047,-1.576 -1.471,-2.569 l 8.049,-12.435 c 0.883,-1.363 1.392,-2.223 1.529,-2.58 0.139,-0.356 0.174,-0.637 0.108,-0.841 -0.066,-0.204 -0.204,-0.374 -0.414,-0.51 -0.244,-0.158 -0.597,-0.286 -1.052,-0.384 l 0.112,-0.578 4.553,0.865 0.591,0.382 z m -0.543,0.839 -4.647,7.181 c 0.163,0.726 0.41,1.354 0.741,1.884 0.333,0.531 0.748,0.958 1.246,1.28 0.794,0.514 1.816,0.557 3.068,0.127 1.252,-0.43 2.417,-1.479 3.496,-3.146 0.996,-1.539 1.417,-2.942 1.267,-4.211 -0.152,-1.27 -0.664,-2.187 -1.538,-2.752 -0.464,-0.3 -1.002,-0.481 -1.618,-0.546 -0.462,-0.052 -1.134,0.009 -2.015,0.183 z m 16.6,6.683 -6.807,9.254 c -0.531,0.721 -0.831,1.239 -0.902,1.556 -0.07,0.315 -0.047,0.607 0.072,0.877 0.119,0.268 0.451,0.603 0.995,1.003 l -0.332,0.453 -5.596,-4.116 0.333,-0.453 c 0.563,0.414 0.979,0.637 1.251,0.669 0.274,0.033 0.559,-0.034 0.857,-0.202 0.299,-0.169 0.709,-0.609 1.233,-1.321 l 3.266,-4.438 c 0.918,-1.248 1.476,-2.086 1.671,-2.51 0.139,-0.312 0.184,-0.565 0.137,-0.763 -0.049,-0.197 -0.183,-0.376 -0.4,-0.536 -0.235,-0.173 -0.567,-0.32 -0.995,-0.44 l 0.157,-0.583 4.507,1.145 z m 3.387,-6.79 c 0.353,0.26 0.561,0.604 0.627,1.032 0.065,0.43 -0.032,0.819 -0.292,1.172 -0.258,0.353 -0.604,0.563 -1.036,0.632 -0.433,0.07 -0.824,-0.024 -1.177,-0.283 -0.352,-0.259 -0.562,-0.607 -0.627,-1.043 -0.066,-0.438 0.029,-0.83 0.288,-1.183 0.26,-0.353 0.604,-0.562 1.033,-0.627 0.428,-0.065 0.823,0.035 1.184,0.3 z m 5.986,8.663 -2.943,3.663 2.604,2.093 -0.685,0.851 -2.604,-2.092 -5.807,7.229 c -0.58,0.722 -0.867,1.292 -0.861,1.709 0.003,0.418 0.168,0.757 0.492,1.018 0.269,0.215 0.595,0.341 0.979,0.377 0.385,0.035 0.776,-0.055 1.176,-0.268 l 0.475,0.381 c -0.923,0.567 -1.805,0.843 -2.646,0.827 -0.843,-0.016 -1.539,-0.244 -2.091,-0.688 -0.373,-0.3 -0.654,-0.696 -0.846,-1.19 -0.191,-0.493 -0.217,-1.001 -0.078,-1.523 0.141,-0.522 0.531,-1.185 1.177,-1.988 l 6.021,-7.495 -1.765,-1.418 0.322,-0.401 c 0.59,0.18 1.289,0.244 2.098,0.193 0.808,-0.052 1.629,-0.222 2.464,-0.513 0.435,-0.158 1.146,-0.514 2.138,-1.066 z m 4.994,9.832 -7.568,8.643 c -0.591,0.673 -0.933,1.164 -1.031,1.474 -0.098,0.308 -0.098,0.601 -0.002,0.879 0.095,0.278 0.397,0.64 0.906,1.085 l -0.369,0.423 -5.226,-4.576 0.37,-0.423 c 0.524,0.459 0.92,0.717 1.19,0.773 0.269,0.055 0.56,0.012 0.871,-0.13 0.312,-0.143 0.758,-0.546 1.341,-1.212 l 3.63,-4.145 c 1.021,-1.166 1.647,-1.953 1.879,-2.359 0.165,-0.298 0.23,-0.548 0.199,-0.748 -0.031,-0.201 -0.149,-0.391 -0.354,-0.568 -0.22,-0.193 -0.536,-0.367 -0.952,-0.523 l 0.205,-0.566 4.394,1.522 z m 3.951,-6.478 c 0.328,0.288 0.507,0.648 0.536,1.081 0.028,0.434 -0.102,0.814 -0.39,1.143 -0.287,0.329 -0.649,0.51 -1.085,0.543 -0.438,0.032 -0.821,-0.096 -1.15,-0.383 -0.328,-0.288 -0.508,-0.652 -0.536,-1.094 -0.029,-0.439 0.101,-0.824 0.389,-1.152 0.287,-0.33 0.647,-0.508 1.081,-0.537 0.433,-0.029 0.819,0.105 1.155,0.399 z m 1.603,24.552 c -1.593,1.078 -3.145,1.586 -4.657,1.525 -1.512,-0.061 -2.756,-0.567 -3.73,-1.521 -1.161,-1.135 -1.696,-2.611 -1.605,-4.431 0.091,-1.818 0.947,-3.557 2.569,-5.216 1.572,-1.606 3.326,-2.444 5.264,-2.514 1.939,-0.069 3.577,0.551 4.916,1.86 1.004,0.982 1.57,2.057 1.697,3.221 0.127,1.166 -0.09,2.034 -0.65,2.607 -0.276,0.282 -0.591,0.422 -0.944,0.419 -0.354,-0.004 -0.693,-0.166 -1.021,-0.486 -0.438,-0.43 -0.632,-0.895 -0.578,-1.396 0.027,-0.279 0.234,-0.659 0.622,-1.139 0.389,-0.478 0.565,-0.96 0.531,-1.445 -0.042,-0.478 -0.294,-0.942 -0.755,-1.394 -0.744,-0.728 -1.612,-1.038 -2.604,-0.932 -1.316,0.14 -2.559,0.809 -3.73,2.006 -1.193,1.22 -1.947,2.59 -2.262,4.109 -0.314,1.519 0.039,2.776 1.058,3.774 0.729,0.712 1.626,1.104 2.694,1.173 0.744,0.058 1.75,-0.174 3.018,-0.695 z m 14.49,2.158 -3.618,3.258 -0.345,-0.382 c 0.871,-1.318 1.306,-2.391 1.302,-3.22 -0.005,-0.83 -0.326,-1.6 -0.968,-2.312 -0.488,-0.541 -1.024,-0.85 -1.609,-0.924 -0.586,-0.075 -1.051,0.044 -1.4,0.357 -0.433,0.39 -0.693,0.848 -0.779,1.374 -0.101,0.525 0.001,1.314 0.307,2.369 l 0.701,2.436 c 0.648,2.259 0.345,3.952 -0.908,5.08 -0.966,0.871 -2.074,1.207 -3.323,1.008 -1.249,-0.197 -2.282,-0.749 -3.097,-1.654 -0.585,-0.649 -1.136,-1.496 -1.657,-2.54 -0.152,-0.325 -0.301,-0.568 -0.447,-0.731 -0.161,-0.178 -0.387,-0.226 -0.678,-0.146 l -0.345,-0.383 3.793,-3.415 0.345,0.383 c -0.888,1.191 -1.331,2.34 -1.33,3.445 0,1.104 0.343,2.036 1.024,2.794 0.481,0.534 1.029,0.828 1.646,0.882 0.615,0.055 1.145,-0.116 1.585,-0.514 0.533,-0.479 0.813,-1.071 0.839,-1.773 0.025,-0.702 -0.188,-1.865 -0.64,-3.488 -0.453,-1.622 -0.611,-2.809 -0.477,-3.561 0.127,-0.745 0.527,-1.42 1.2,-2.025 0.874,-0.787 1.874,-1.146 3.001,-1.075 1.128,0.07 2.119,0.581 2.977,1.532 0.376,0.418 0.743,1.004 1.102,1.76 0.238,0.498 0.418,0.814 0.535,0.945 0.112,0.123 0.227,0.196 0.343,0.217 0.116,0.021 0.311,-0.006 0.578,-0.08 z m 11.662,30.112 0.206,0.485 -5.744,1.811 -9.4,-13.426 0.475,-0.33 0.456,0.651 c 0.513,0.733 1.118,1.09 1.816,1.071 0.398,-0.012 1.092,-0.364 2.081,-1.057 l 11.188,-7.833 c 1.083,-0.757 1.676,-1.352 1.782,-1.78 0.143,-0.596 -0.016,-1.222 -0.476,-1.878 l -0.457,-0.652 0.474,-0.331 5.496,7.851 -0.474,0.331 c -0.636,-0.926 -1.173,-1.512 -1.61,-1.758 -0.439,-0.245 -0.844,-0.341 -1.211,-0.286 -0.368,0.056 -1.068,0.442 -2.1,1.165 l -10.895,7.627 c -0.707,0.496 -1.146,0.904 -1.313,1.226 -0.107,0.228 -0.13,0.478 -0.065,0.751 0.063,0.272 0.486,0.967 1.269,2.084 l 0.886,1.266 c 0.932,1.329 1.684,2.194 2.255,2.594 0.572,0.4 1.263,0.646 2.072,0.741 0.809,0.093 1.905,-0.013 3.289,-0.323 z m 1.975,10.874 c -1.721,-0.691 -2.752,-1.154 -3.094,-1.388 -0.509,-0.353 -0.924,-0.803 -1.245,-1.351 -0.501,-0.853 -0.621,-1.726 -0.362,-2.62 0.261,-0.894 0.865,-1.62 1.817,-2.179 0.601,-0.353 1.2,-0.523 1.799,-0.513 0.825,0.011 1.774,0.312 2.848,0.907 1.073,0.595 2.617,1.725 4.632,3.39 l 0.485,-0.284 c 1.229,-0.721 1.958,-1.412 2.187,-2.071 0.229,-0.659 0.124,-1.36 -0.313,-2.105 -0.331,-0.565 -0.747,-0.925 -1.247,-1.077 -0.505,-0.162 -0.955,-0.127 -1.351,0.104 l -0.765,0.485 c -0.412,0.242 -0.794,0.323 -1.141,0.244 -0.35,-0.079 -0.623,-0.289 -0.823,-0.631 -0.195,-0.332 -0.238,-0.672 -0.128,-1.02 0.109,-0.348 0.366,-0.641 0.771,-0.877 0.771,-0.453 1.712,-0.475 2.821,-0.064 1.11,0.411 2.083,1.33 2.921,2.757 0.644,1.095 0.984,2.101 1.029,3.017 0.03,0.692 -0.175,1.338 -0.619,1.938 -0.291,0.388 -1.033,0.932 -2.228,1.632 l -4.187,2.458 c -1.175,0.689 -1.882,1.135 -2.121,1.335 -0.237,0.2 -0.372,0.378 -0.401,0.534 -0.029,0.156 -0.004,0.301 0.075,0.436 0.084,0.144 0.188,0.25 0.315,0.321 0.228,0.12 0.769,0.292 1.623,0.515 l -0.754,0.441 c -1.938,-0.215 -3.174,-0.779 -3.71,-1.695 -0.259,-0.439 -0.311,-0.879 -0.159,-1.318 0.153,-0.44 0.594,-0.879 1.325,-1.321 z m 0.876,-0.513 4.697,-2.758 c -1.333,-1.038 -2.228,-1.689 -2.684,-1.953 -0.812,-0.477 -1.522,-0.742 -2.131,-0.794 -0.611,-0.053 -1.172,0.071 -1.683,0.372 -0.646,0.379 -1.069,0.887 -1.269,1.522 -0.201,0.636 -0.153,1.205 0.143,1.708 0.401,0.682 1.376,1.317 2.927,1.903 z m 12.558,4.762 c 2.339,0.388 3.864,1.3 4.574,2.737 0.649,1.314 0.655,2.74 0.016,4.274 -0.641,1.535 -1.935,2.785 -3.885,3.749 -2.277,1.125 -4.482,1.275 -6.619,0.451 -1.836,-0.707 -3.147,-1.857 -3.936,-3.452 -0.369,-0.746 -0.607,-1.571 -0.718,-2.475 -0.111,-0.904 -0.093,-1.89 0.052,-2.959 l 13.279,-6.563 c 1.455,-0.721 2.333,-1.197 2.635,-1.434 0.3,-0.236 0.474,-0.459 0.521,-0.668 0.047,-0.209 0.017,-0.426 -0.094,-0.649 -0.13,-0.262 -0.366,-0.551 -0.709,-0.868 l 0.394,-0.438 3.469,3.073 0.312,0.629 z m -0.896,0.443 -7.668,3.791 c -0.231,0.707 -0.341,1.372 -0.326,1.998 0.013,0.626 0.151,1.205 0.413,1.736 0.42,0.849 1.277,1.409 2.573,1.681 1.294,0.271 2.832,-0.034 4.614,-0.915 1.642,-0.811 2.723,-1.801 3.242,-2.969 0.519,-1.168 0.549,-2.219 0.088,-3.151 -0.244,-0.494 -0.615,-0.927 -1.111,-1.296 -0.371,-0.282 -0.979,-0.573 -1.825,-0.875 z m -0.697,16.959 c 0.191,0.45 0.196,0.895 0.016,1.334 -0.182,0.438 -0.492,0.752 -0.933,0.939 -0.439,0.188 -0.883,0.191 -1.325,0.013 -0.444,-0.179 -0.76,-0.489 -0.946,-0.929 -0.188,-0.44 -0.192,-0.883 -0.013,-1.326 0.178,-0.443 0.488,-0.76 0.929,-0.946 0.45,-0.191 0.894,-0.197 1.333,-0.017 0.438,0.182 0.75,0.492 0.939,0.932 z m 22.79,48.611 -6.581,8.818 c -1.087,1.447 -1.797,2.651 -2.127,3.613 -0.331,0.961 -0.465,1.895 -0.398,2.799 l -0.571,0.082 -1.418,-9.967 0.572,-0.082 c 0.085,0.598 0.246,1.014 0.484,1.248 0.238,0.234 0.481,0.334 0.729,0.298 0.247,-0.034 0.461,-0.115 0.644,-0.241 0.182,-0.126 0.502,-0.5 0.959,-1.121 l 6.128,-8.25 -6.754,0.961 c -1.062,0.15 -1.752,0.316 -2.073,0.499 -0.242,0.14 -0.433,0.388 -0.572,0.743 -0.185,0.479 -0.241,0.965 -0.171,1.459 l 0.102,0.711 -0.572,0.081 -1.27,-8.931 0.571,-0.082 0.106,0.742 c 0.123,0.865 0.465,1.457 1.025,1.777 0.364,0.2 1.176,0.211 2.432,0.032 l 13.537,-1.925 c 1.061,-0.15 1.757,-0.318 2.088,-0.502 0.233,-0.138 0.42,-0.38 0.559,-0.726 0.184,-0.489 0.24,-0.979 0.17,-1.475 l -0.107,-0.739 0.572,-0.082 1.27,8.932 -0.571,0.082 -0.103,-0.711 c -0.068,-0.484 -0.254,-0.937 -0.555,-1.355 -0.21,-0.296 -0.489,-0.482 -0.836,-0.56 -0.349,-0.077 -1.037,-0.042 -2.066,0.104 l -6.413,0.912 c 0.225,0.178 0.979,0.791 2.264,1.838 3.237,2.661 5.369,4.245 6.398,4.75 0.45,0.22 0.832,0.308 1.142,0.264 0.235,-0.034 0.43,-0.172 0.579,-0.414 0.149,-0.241 0.188,-0.62 0.115,-1.135 l -0.069,-0.479 0.572,-0.081 1.095,7.695 -0.572,0.082 c -0.074,-0.452 -0.194,-0.855 -0.361,-1.21 -0.167,-0.355 -0.45,-0.777 -0.85,-1.267 -0.401,-0.49 -1.019,-1.075 -1.851,-1.756 -0.238,-0.197 -1.442,-1.093 -3.613,-2.686 z m 4.36,14.064 0.315,6.658 -0.576,0.026 -0.016,-0.327 c -0.021,-0.468 -0.141,-0.813 -0.354,-1.038 -0.214,-0.224 -0.471,-0.329 -0.772,-0.314 -0.406,0.019 -0.959,0.218 -1.658,0.594 l -7.039,3.819 8.041,2.821 c 0.434,0.156 0.859,0.225 1.274,0.206 0.187,-0.01 0.326,-0.053 0.416,-0.13 0.11,-0.089 0.195,-0.224 0.255,-0.403 0.059,-0.18 0.077,-0.493 0.057,-0.939 l 0.577,-0.027 0.22,4.646 -0.576,0.027 c -0.062,-0.382 -0.158,-0.675 -0.293,-0.877 -0.133,-0.202 -0.378,-0.419 -0.733,-0.652 -0.149,-0.087 -0.559,-0.244 -1.225,-0.473 l -14.526,-5.14 c -1.409,-0.496 -2.488,-1.182 -3.238,-2.058 -0.75,-0.876 -1.146,-1.735 -1.186,-2.577 -0.029,-0.613 0.123,-1.125 0.458,-1.537 0.336,-0.412 0.731,-0.629 1.188,-0.65 0.437,-0.021 0.794,0.105 1.072,0.379 0.279,0.273 0.431,0.66 0.454,1.158 0.017,0.344 -0.077,0.816 -0.277,1.42 -0.136,0.423 -0.202,0.687 -0.196,0.791 0.016,0.312 0.192,0.645 0.531,0.998 0.34,0.354 0.982,0.695 1.925,1.025 l 2.527,0.896 10.529,-5.641 c 0.315,-0.172 0.703,-0.439 1.165,-0.806 0.352,-0.277 0.586,-0.501 0.703,-0.674 0.154,-0.247 0.282,-0.639 0.381,-1.175 z m 0.357,29.994 -8.659,-0.254 c -1.654,-0.049 -2.668,-0.039 -3.038,0.028 -0.371,0.067 -0.633,0.184 -0.783,0.352 -0.15,0.167 -0.229,0.365 -0.236,0.594 -0.009,0.322 0.069,0.689 0.233,1.101 l -0.553,0.202 -1.638,-4.327 0.021,-0.702 3.025,0.09 c -1.295,-1.267 -2.104,-2.228 -2.43,-2.883 -0.323,-0.654 -0.475,-1.341 -0.454,-2.059 0.023,-0.801 0.276,-1.488 0.755,-2.063 0.48,-0.574 1.089,-0.965 1.823,-1.172 0.734,-0.208 1.768,-0.292 3.099,-0.253 l 6.381,0.187 c 0.677,0.021 1.147,-0.039 1.411,-0.177 0.265,-0.138 0.472,-0.348 0.619,-0.63 0.149,-0.282 0.229,-0.797 0.241,-1.547 l 0.577,0.018 -0.146,5.008 -9.564,-0.28 c -1.331,-0.039 -2.212,0.166 -2.642,0.617 -0.43,0.45 -0.654,1.004 -0.673,1.659 -0.013,0.447 0.112,0.958 0.377,1.533 0.264,0.575 0.779,1.265 1.547,2.067 l 8.098,0.238 c 0.811,0.023 1.364,-0.109 1.659,-0.396 0.294,-0.288 0.465,-0.9 0.515,-1.835 l 0.577,0.017 z m -3.257,8.018 c 1.83,1.879 2.664,3.574 2.503,5.085 -0.081,0.776 -0.346,1.423 -0.793,1.94 -0.448,0.518 -1.134,0.895 -2.059,1.131 -0.646,0.162 -1.609,0.176 -2.893,0.039 l -6.069,-0.645 c -0.899,-0.096 -1.519,-0.089 -1.854,0.022 -0.271,0.086 -0.493,0.248 -0.664,0.486 -0.172,0.238 -0.295,0.699 -0.366,1.382 l -0.559,-0.06 0.746,-7.031 0.559,0.06 -0.031,0.295 c -0.07,0.662 -0.019,1.137 0.155,1.422 0.174,0.285 0.451,0.5 0.834,0.645 0.151,0.059 0.635,0.131 1.453,0.218 l 5.819,0.618 c 1.293,0.138 2.25,0.069 2.871,-0.205 0.62,-0.273 0.974,-0.81 1.058,-1.606 0.13,-1.231 -0.412,-2.529 -1.628,-3.894 l -7.496,-0.795 c -0.963,-0.103 -1.564,-0.109 -1.803,-0.02 -0.316,0.113 -0.557,0.289 -0.723,0.527 -0.168,0.238 -0.291,0.746 -0.374,1.522 l -0.56,-0.06 0.748,-7.03 0.557,0.059 -0.032,0.311 c -0.077,0.724 0.055,1.232 0.396,1.525 0.341,0.292 1.028,0.493 2.063,0.604 l 5.277,0.561 c 1.707,0.181 2.751,0.253 3.133,0.215 0.381,-0.038 0.646,-0.13 0.799,-0.276 0.15,-0.146 0.24,-0.354 0.27,-0.622 0.031,-0.29 -0.01,-0.645 -0.122,-1.065 l 0.583,-0.174 1.284,4.469 -0.072,0.668 z m -8.455,14.803 c 0.577,-0.783 1.284,-1.335 2.121,-1.657 0.836,-0.323 1.71,-0.401 2.621,-0.233 1.392,0.255 2.493,0.999 3.305,2.232 0.81,1.232 1.064,2.668 0.765,4.306 -0.246,1.341 -0.787,2.442 -1.622,3.305 l -0.547,2.979 c -0.08,0.44 -0.141,0.693 -0.179,0.761 -0.039,0.066 -0.092,0.11 -0.158,0.129 -0.104,0.045 -0.273,0.045 -0.51,0.002 -0.266,-0.049 -0.444,-0.108 -0.538,-0.178 -0.045,-0.04 -0.076,-0.101 -0.093,-0.184 -0.017,-0.082 0.016,-0.344 0.097,-0.783 l 0.335,-1.828 c -0.842,0.438 -1.837,0.553 -2.982,0.342 -1.311,-0.24 -2.34,-0.947 -3.086,-2.121 -0.748,-1.174 -0.967,-2.605 -0.656,-4.293 0.128,-0.697 0.36,-1.39 0.697,-2.078 -0.306,-0.521 -0.59,-0.889 -0.852,-1.102 -0.264,-0.212 -0.498,-0.337 -0.702,-0.374 -0.175,-0.032 -0.359,0.021 -0.554,0.16 -0.195,0.139 -0.372,0.448 -0.533,0.926 -0.094,0.278 -0.262,0.989 -0.502,2.129 -0.439,2.099 -0.761,3.453 -0.967,4.06 -0.309,0.928 -0.801,1.623 -1.479,2.086 -0.677,0.463 -1.436,0.617 -2.274,0.463 -1.156,-0.212 -2.143,-0.953 -2.956,-2.225 -1.201,-1.87 -1.566,-4.09 -1.096,-6.658 0.363,-1.977 1.114,-3.563 2.254,-4.76 0.653,-0.674 1.256,-0.961 1.809,-0.859 0.245,0.045 0.48,0.146 0.706,0.305 0.347,0.243 0.808,0.698 1.384,1.365 0.078,0.088 0.536,0.711 1.371,1.869 0.414,-0.475 0.767,-0.798 1.059,-0.972 0.291,-0.175 0.596,-0.231 0.912,-0.174 0.357,0.065 0.751,0.288 1.179,0.668 0.426,0.378 0.983,1.176 1.671,2.392 z m -5.1,-1.094 c -0.434,-0.577 -0.853,-1.029 -1.258,-1.357 -0.405,-0.329 -0.798,-0.527 -1.177,-0.597 -0.491,-0.091 -0.976,0.128 -1.452,0.653 -0.823,0.907 -1.411,2.328 -1.767,4.262 -0.338,1.843 -0.262,3.261 0.228,4.255 0.489,0.995 1.103,1.56 1.839,1.694 0.532,0.098 0.959,-0.093 1.28,-0.574 0.323,-0.491 0.649,-1.521 0.979,-3.09 0.484,-2.291 0.927,-4.041 1.328,-5.246 z m 13.222,5.346 c 0.14,-0.758 -0.047,-1.447 -0.556,-2.07 -0.51,-0.623 -1.39,-1.049 -2.638,-1.277 -1.617,-0.297 -2.936,-0.179 -3.953,0.354 -0.773,0.408 -1.235,1.022 -1.386,1.841 -0.143,0.777 0.031,1.472 0.522,2.079 0.492,0.609 1.362,1.028 2.611,1.258 1.627,0.297 2.967,0.179 4.017,-0.359 0.772,-0.399 1.232,-1.008 1.383,-1.826 z m -8.546,24.386 -3.088,9.336 5.75,1.901 c 1.028,0.34 1.726,0.499 2.094,0.479 0.28,-0.017 0.562,-0.154 0.844,-0.411 0.378,-0.347 0.645,-0.757 0.802,-1.231 l 0.235,-0.711 0.548,0.182 -2.843,8.596 -0.548,-0.183 0.235,-0.711 c 0.156,-0.475 0.192,-0.962 0.105,-1.461 -0.055,-0.369 -0.223,-0.663 -0.507,-0.883 -0.283,-0.22 -0.919,-0.493 -1.906,-0.819 l -12.967,-4.289 c -1.018,-0.337 -1.71,-0.494 -2.079,-0.474 -0.28,0.017 -0.56,0.149 -0.838,0.396 -0.381,0.356 -0.649,0.771 -0.807,1.246 l -0.235,0.712 -0.548,-0.182 2.842,-8.596 0.549,0.182 -0.236,0.711 c -0.271,0.82 -0.226,1.498 0.134,2.033 0.234,0.352 0.954,0.727 2.16,1.125 l 6.119,2.024 3.089,-9.335 -6.12,-2.024 c -1.019,-0.337 -1.712,-0.495 -2.08,-0.474 -0.279,0.017 -0.56,0.154 -0.843,0.411 -0.378,0.347 -0.646,0.757 -0.803,1.23 l -0.239,0.727 -0.548,-0.182 2.847,-8.61 0.549,0.182 -0.234,0.712 c -0.274,0.829 -0.232,1.513 0.127,2.048 0.238,0.342 0.96,0.712 2.165,1.11 l 12.967,4.289 c 1.026,0.34 1.725,0.499 2.094,0.478 0.279,-0.017 0.56,-0.148 0.838,-0.396 0.381,-0.355 0.649,-0.771 0.807,-1.245 l 0.235,-0.711 0.548,0.181 -2.848,8.61 -0.548,-0.182 0.241,-0.727 c 0.155,-0.474 0.19,-0.961 0.104,-1.461 -0.057,-0.358 -0.227,-0.65 -0.508,-0.875 -0.282,-0.225 -0.918,-0.5 -1.904,-0.827 z m -9.142,18.255 c -1.943,-0.853 -3.677,-1.042 -5.197,-0.565 -1.521,0.475 -2.561,1.357 -3.118,2.647 -0.372,0.859 -0.459,1.708 -0.261,2.548 0.197,0.84 0.776,1.723 1.736,2.648 l -0.479,0.32 c -1.222,-0.768 -2.161,-1.865 -2.818,-3.295 -0.656,-1.43 -0.672,-2.869 -0.043,-4.321 0.682,-1.575 1.879,-2.659 3.592,-3.25 1.713,-0.592 3.605,-0.438 5.677,0.458 2.245,0.971 3.745,2.304 4.504,3.998 0.759,1.693 0.761,3.41 0.009,5.148 -0.636,1.471 -1.645,2.469 -3.021,2.995 -1.379,0.525 -2.881,0.438 -4.503,-0.265 z m 0.831,0.36 -2.628,6.073 c 0.86,0.316 1.496,0.472 1.906,0.468 0.639,-0.008 1.213,-0.181 1.722,-0.521 0.51,-0.341 0.878,-0.769 1.101,-1.284 0.343,-0.793 0.342,-1.635 -0.004,-2.527 -0.345,-0.893 -1.044,-1.629 -2.097,-2.209 z m -6.779,12.784 c -1.882,-0.982 -3.597,-1.289 -5.147,-0.918 -1.55,0.371 -2.647,1.181 -3.291,2.429 -0.43,0.832 -0.574,1.675 -0.434,2.525 0.14,0.851 0.657,1.771 1.552,2.76 l -0.499,0.286 c -1.166,-0.847 -2.027,-2.007 -2.587,-3.478 -0.558,-1.471 -0.475,-2.909 0.251,-4.314 0.787,-1.526 2.056,-2.525 3.805,-2.998 1.75,-0.474 3.627,-0.192 5.634,0.844 2.172,1.122 3.579,2.553 4.22,4.295 0.641,1.742 0.527,3.454 -0.341,5.138 -0.735,1.424 -1.809,2.352 -3.219,2.781 -1.412,0.432 -2.903,0.242 -4.476,-0.57 z m 0.804,0.415 -3.034,5.881 c 0.836,0.374 1.461,0.572 1.869,0.597 0.637,0.036 1.222,-0.098 1.754,-0.403 0.533,-0.305 0.928,-0.707 1.186,-1.206 0.396,-0.768 0.452,-1.608 0.168,-2.521 -0.284,-0.914 -0.933,-1.698 -1.943,-2.348 z m -10.032,37.288 0.472,0.332 -4.311,6.128 -0.471,-0.332 0.457,-0.651 c 0.479,-0.681 0.563,-1.405 0.249,-2.172 -0.138,-0.364 -0.688,-0.885 -1.649,-1.561 l -7.021,-4.939 c -1.737,-1.222 -2.961,-2.341 -3.677,-3.359 -0.715,-1.019 -1.06,-2.272 -1.036,-3.763 0.024,-1.491 0.646,-3.104 1.868,-4.841 1.329,-1.889 2.666,-3.092 4.01,-3.609 1.343,-0.519 2.712,-0.594 4.106,-0.223 0.948,0.26 2.465,1.124 4.551,2.59 l 6.766,4.76 c 1.065,0.748 1.866,1.093 2.404,1.033 0.538,-0.061 1.038,-0.419 1.498,-1.074 l 0.459,-0.651 0.473,0.333 -5.263,7.48 -0.474,-0.332 0.469,-0.664 c 0.502,-0.715 0.636,-1.384 0.4,-2.008 -0.156,-0.428 -0.72,-0.983 -1.689,-1.666 l -7.546,-5.307 c -0.672,-0.473 -1.485,-0.953 -2.441,-1.44 -0.954,-0.487 -1.788,-0.74 -2.501,-0.758 -0.712,-0.018 -1.44,0.167 -2.184,0.554 -0.742,0.387 -1.426,1.023 -2.048,1.908 -0.796,1.132 -1.262,2.318 -1.396,3.56 -0.136,1.241 0.066,2.296 0.606,3.165 0.54,0.869 1.729,1.951 3.567,3.244 l 7.009,4.93 c 1.081,0.761 1.842,1.117 2.281,1.071 0.608,-0.069 1.143,-0.432 1.604,-1.086 z m -15.655,5.61 c 0.448,2.585 0.178,4.455 -0.81,5.61 -0.506,0.593 -1.09,0.977 -1.752,1.15 -0.661,0.175 -1.44,0.097 -2.337,-0.23 -0.624,-0.231 -1.427,-0.767 -2.407,-1.604 l -4.641,-3.962 c -0.688,-0.588 -1.203,-0.932 -1.543,-1.03 -0.271,-0.082 -0.546,-0.073 -0.823,0.026 -0.276,0.099 -0.637,0.409 -1.084,0.933 l -0.427,-0.365 4.592,-5.377 0.428,0.364 -0.193,0.226 c -0.432,0.507 -0.658,0.927 -0.675,1.26 -0.019,0.334 0.089,0.668 0.322,1.005 0.091,0.133 0.45,0.466 1.075,1 l 4.452,3.801 c 0.987,0.845 1.815,1.329 2.482,1.454 0.667,0.124 1.261,-0.118 1.78,-0.728 0.805,-0.942 1.091,-2.319 0.859,-4.13 l -5.732,-4.896 c -0.736,-0.628 -1.229,-0.974 -1.478,-1.035 -0.324,-0.085 -0.622,-0.076 -0.895,0.027 -0.271,0.103 -0.662,0.45 -1.168,1.043 l -0.429,-0.364 4.593,-5.377 0.427,0.364 -0.202,0.238 c -0.474,0.554 -0.652,1.047 -0.536,1.481 0.114,0.433 0.568,0.988 1.359,1.664 l 4.035,3.446 c 1.306,1.115 2.127,1.764 2.462,1.948 0.337,0.184 0.608,0.259 0.815,0.224 0.207,-0.035 0.399,-0.155 0.576,-0.361 0.188,-0.222 0.355,-0.537 0.5,-0.947 l 0.579,0.187 -1.468,4.411 -0.438,0.511 z m -9.274,14.796 -8.279,-7.964 c -0.645,-0.62 -1.12,-0.987 -1.423,-1.099 -0.304,-0.112 -0.597,-0.127 -0.878,-0.044 -0.282,0.083 -0.658,0.368 -1.127,0.855 l -0.404,-0.39 4.814,-5.006 0.406,0.39 c -0.483,0.503 -0.76,0.887 -0.829,1.153 -0.067,0.266 -0.038,0.559 0.089,0.875 0.128,0.318 0.51,0.783 1.148,1.397 l 3.97,3.819 c 1.117,1.075 1.874,1.738 2.269,1.987 0.29,0.179 0.537,0.257 0.738,0.234 0.202,-0.022 0.397,-0.131 0.586,-0.325 0.201,-0.211 0.391,-0.52 0.565,-0.928 l 0.558,0.232 -1.728,4.316 z m 6.284,4.25 c -0.302,0.316 -0.671,0.477 -1.104,0.484 -0.434,0.01 -0.809,-0.138 -1.123,-0.44 -0.315,-0.304 -0.479,-0.675 -0.491,-1.111 -0.012,-0.438 0.133,-0.813 0.437,-1.129 0.303,-0.315 0.675,-0.477 1.116,-0.485 0.442,-0.009 0.819,0.139 1.136,0.441 0.314,0.304 0.476,0.672 0.484,1.106 0.007,0.434 -0.143,0.812 -0.455,1.134 z m -9.127,-1.796 -4.943,4.563 -0.392,-0.425 0.32,-0.296 c 0.299,-0.274 0.46,-0.558 0.482,-0.848 0.022,-0.29 -0.079,-0.558 -0.305,-0.802 -0.248,-0.268 -0.62,-0.511 -1.12,-0.729 l -7.8,-3.548 3.104,8.287 c 0.22,0.59 0.432,0.996 0.636,1.218 0.099,0.106 0.211,0.167 0.336,0.179 0.189,0.037 0.369,0.017 0.538,-0.061 0.168,-0.078 0.452,-0.301 0.85,-0.668 l 0.392,0.425 -3.429,3.165 -0.393,-0.424 c 0.369,-0.397 0.571,-0.732 0.604,-1.003 0.056,-0.477 -0.056,-1.081 -0.336,-1.814 l -4.596,-12.455 0.471,-0.434 11.935,5.402 c 0.549,0.257 0.983,0.405 1.302,0.444 0.319,0.038 0.654,0.01 1.004,-0.087 0.193,-0.052 0.509,-0.224 0.948,-0.515 z m -18.095,8.988 c -1.317,-1.665 -2.758,-2.646 -4.324,-2.939 -1.566,-0.295 -2.898,-0.003 -3.997,0.873 -0.731,0.584 -1.206,1.293 -1.426,2.128 -0.22,0.834 -0.124,1.886 0.29,3.153 l -0.573,0.058 c -0.719,-1.251 -1.031,-2.66 -0.94,-4.231 0.091,-1.57 0.754,-2.85 1.99,-3.836 1.342,-1.07 2.908,-1.466 4.697,-1.183 1.79,0.281 3.39,1.306 4.798,3.069 1.525,1.911 2.226,3.793 2.099,5.645 -0.127,1.852 -0.93,3.368 -2.409,4.55 -1.253,0.999 -2.611,1.408 -4.075,1.226 -1.463,-0.184 -2.747,-0.966 -3.852,-2.348 z m 0.565,0.707 -5.172,4.129 c 0.612,0.684 1.099,1.119 1.464,1.309 0.566,0.293 1.155,0.408 1.765,0.348 0.61,-0.062 1.136,-0.267 1.574,-0.617 0.676,-0.539 1.069,-1.283 1.184,-2.233 0.112,-0.951 -0.158,-1.929 -0.815,-2.936 z m -10.079,13.838 -1.854,-2.627 c 0.259,2.44 -0.127,4.025 -1.155,4.751 -0.467,0.33 -0.955,0.461 -1.461,0.392 -0.507,-0.068 -0.894,-0.29 -1.157,-0.664 -0.234,-0.331 -0.321,-0.689 -0.263,-1.075 0.06,-0.386 0.241,-0.687 0.547,-0.902 0.298,-0.21 0.736,-0.299 1.312,-0.267 0.578,0.031 0.955,-0.015 1.134,-0.141 0.152,-0.108 0.259,-0.311 0.317,-0.605 0.136,-0.619 0.127,-1.473 -0.029,-2.56 l -3.952,-5.598 c -0.456,-0.646 -0.882,-1.078 -1.277,-1.295 -0.273,-0.151 -0.604,-0.205 -0.992,-0.16 -0.389,0.046 -0.846,0.254 -1.373,0.626 l -0.324,-0.459 5.98,-4.222 0.323,0.458 c -0.594,0.421 -0.971,0.826 -1.128,1.217 -0.116,0.286 -0.111,0.608 0.013,0.966 0.061,0.175 0.33,0.603 0.811,1.282 l 3.195,4.526 c 0.961,1.36 1.56,2.149 1.799,2.37 0.236,0.221 0.473,0.338 0.707,0.352 0.23,0.014 0.458,-0.057 0.68,-0.213 0.264,-0.186 0.516,-0.46 0.757,-0.821 l 0.451,0.369 -2.522,3.921 z m -13.555,8.895 -2.587,-4.126 0.436,-0.273 c 1.148,1.086 2.131,1.697 2.948,1.836 0.817,0.139 1.632,-0.046 2.442,-0.555 0.618,-0.387 1.014,-0.862 1.188,-1.426 0.174,-0.564 0.137,-1.045 -0.111,-1.441 -0.311,-0.494 -0.716,-0.828 -1.22,-1.004 -0.499,-0.19 -1.296,-0.227 -2.388,-0.105 l -2.519,0.271 c -2.337,0.249 -3.953,-0.34 -4.849,-1.769 -0.691,-1.102 -0.831,-2.252 -0.421,-3.448 0.41,-1.196 1.132,-2.118 2.162,-2.765 0.741,-0.464 1.67,-0.862 2.789,-1.194 0.345,-0.095 0.611,-0.2 0.796,-0.316 0.203,-0.127 0.29,-0.342 0.261,-0.642 l 0.437,-0.274 2.711,4.325 -0.436,0.273 c -1.021,-1.08 -2.076,-1.715 -3.165,-1.903 -1.089,-0.189 -2.065,-0.014 -2.93,0.528 -0.608,0.381 -0.992,0.871 -1.152,1.468 -0.159,0.598 -0.082,1.147 0.234,1.65 0.381,0.608 0.915,0.985 1.602,1.132 0.688,0.146 1.87,0.137 3.547,-0.03 1.677,-0.167 2.873,-0.118 3.59,0.144 0.713,0.254 1.308,0.764 1.789,1.531 0.624,0.996 0.806,2.044 0.541,3.143 -0.262,1.098 -0.936,1.987 -2.02,2.667 -0.478,0.299 -1.117,0.559 -1.925,0.782 -0.531,0.149 -0.874,0.271 -1.023,0.365 -0.141,0.088 -0.231,0.188 -0.272,0.3 -0.04,0.111 -0.047,0.306 -0.02,0.584 z m -4.69,7.609 -2.292,-4.102 -2.915,1.629 -0.533,-0.953 2.916,-1.629 -4.522,-8.094 c -0.451,-0.809 -0.872,-1.289 -1.261,-1.441 -0.389,-0.152 -0.765,-0.127 -1.129,0.076 -0.3,0.168 -0.538,0.423 -0.715,0.767 -0.178,0.344 -0.242,0.74 -0.194,1.189 l -0.531,0.297 c -0.18,-1.067 -0.104,-1.989 0.226,-2.764 0.33,-0.774 0.805,-1.334 1.422,-1.679 0.419,-0.234 0.892,-0.347 1.422,-0.338 0.529,0.008 1.01,0.175 1.44,0.5 0.432,0.324 0.898,0.937 1.401,1.836 l 4.689,8.395 1.976,-1.104 0.252,0.45 c -0.388,0.479 -0.71,1.103 -0.966,1.871 -0.256,0.768 -0.406,1.595 -0.449,2.477 -0.016,0.463 0.046,1.256 0.187,2.381 z m -10.985,0.943 -5.176,-10.256 c -0.403,-0.799 -0.729,-1.302 -0.979,-1.508 -0.249,-0.206 -0.521,-0.317 -0.814,-0.332 -0.294,-0.016 -0.742,0.129 -1.346,0.434 l -0.253,-0.501 6.201,-3.13 0.252,0.502 c -0.621,0.314 -1.009,0.586 -1.162,0.814 -0.152,0.229 -0.221,0.514 -0.207,0.855 0.017,0.342 0.224,0.908 0.621,1.698 l 2.482,4.919 c 0.699,1.384 1.193,2.259 1.482,2.625 0.216,0.266 0.422,0.42 0.619,0.466 0.199,0.046 0.419,0.008 0.66,-0.114 0.26,-0.131 0.541,-0.36 0.842,-0.688 l 0.448,0.404 -3.059,3.501 z m 4.524,6.092 c -0.39,0.196 -0.791,0.227 -1.203,0.091 -0.412,-0.136 -0.717,-0.398 -0.914,-0.788 -0.196,-0.391 -0.228,-0.795 -0.095,-1.212 0.133,-0.417 0.396,-0.724 0.785,-0.92 0.391,-0.197 0.795,-0.227 1.214,-0.089 0.42,0.139 0.729,0.402 0.925,0.792 0.197,0.391 0.228,0.792 0.091,1.204 -0.136,0.412 -0.403,0.719 -0.803,0.922 z m -7.953,-4.746 -6.116,2.646 -0.23,-0.53 0.302,-0.131 c 0.43,-0.187 0.711,-0.419 0.846,-0.697 0.134,-0.279 0.142,-0.558 0.021,-0.835 -0.16,-0.372 -0.542,-0.82 -1.142,-1.342 l -6.058,-5.237 0.199,8.519 c 0.007,0.463 0.093,0.885 0.258,1.267 0.074,0.172 0.164,0.286 0.268,0.344 0.122,0.071 0.277,0.104 0.467,0.096 0.188,-0.009 0.489,-0.102 0.899,-0.279 l 0.229,0.53 -4.27,1.847 -0.229,-0.53 c 0.337,-0.191 0.577,-0.385 0.718,-0.582 0.142,-0.197 0.259,-0.503 0.353,-0.918 0.027,-0.17 0.031,-0.608 0.009,-1.313 l -0.319,-15.406 c -0.034,-1.492 0.227,-2.744 0.782,-3.756 0.554,-1.011 1.218,-1.684 1.992,-2.019 0.563,-0.243 1.097,-0.281 1.6,-0.113 0.503,0.167 0.847,0.462 1.028,0.882 0.173,0.4 0.181,0.78 0.023,1.137 -0.157,0.357 -0.464,0.636 -0.924,0.834 -0.314,0.136 -0.789,0.217 -1.426,0.242 -0.442,0.022 -0.713,0.054 -0.808,0.095 -0.287,0.124 -0.536,0.407 -0.747,0.851 -0.211,0.442 -0.305,1.163 -0.281,2.161 l 0.055,2.681 8.994,7.86 c 0.271,0.234 0.66,0.503 1.165,0.806 0.384,0.23 0.677,0.371 0.88,0.42 0.285,0.058 0.696,0.038 1.232,-0.058 z m -56.737,3.647 0.074,0.573 -0.79,0.102 c -0.888,0.113 -1.479,0.479 -1.778,1.094 -0.184,0.37 -0.199,1.148 -0.046,2.336 l 1.748,13.561 c 0.169,1.311 0.419,2.112 0.751,2.406 0.46,0.401 1.089,0.551 1.883,0.449 l 0.789,-0.103 0.074,0.573 -8.545,1.102 c -3.137,0.404 -5.57,0.355 -7.299,-0.146 -1.726,-0.5 -3.194,-1.519 -4.404,-3.051 -1.21,-1.534 -1.956,-3.389 -2.237,-5.566 -0.376,-2.921 0.198,-5.476 1.72,-7.666 1.71,-2.444 4.603,-3.929 8.68,-4.455 z m -5.796,2.288 c -1.347,-0.119 -2.466,-0.122 -3.353,-0.008 -2.395,0.309 -4.271,1.405 -5.634,3.291 -1.363,1.886 -1.859,4.269 -1.487,7.147 0.373,2.9 1.458,5.085 3.251,6.553 1.796,1.47 3.931,2.043 6.407,1.724 0.929,-0.119 1.967,-0.405 3.115,-0.857 z m -19.135,9.391 c -0.072,-2.122 -0.65,-3.766 -1.736,-4.932 -1.087,-1.166 -2.332,-1.722 -3.735,-1.668 -0.936,0.037 -1.739,0.326 -2.411,0.867 -0.672,0.541 -1.218,1.445 -1.637,2.711 l -0.496,-0.293 c 0.164,-1.434 0.748,-2.755 1.753,-3.965 1.004,-1.211 2.298,-1.847 3.877,-1.908 1.715,-0.066 3.211,0.545 4.483,1.834 1.274,1.289 1.954,3.062 2.041,5.318 0.096,2.443 -0.457,4.372 -1.658,5.789 -1.199,1.415 -2.746,2.159 -4.638,2.232 -1.602,0.063 -2.937,-0.415 -4.007,-1.43 -1.07,-1.016 -1.64,-2.407 -1.708,-4.176 z m 0.036,0.904 -6.613,0.256 c 0.087,0.913 0.222,1.553 0.403,1.922 0.281,0.571 0.687,1.014 1.215,1.327 0.527,0.313 1.072,0.458 1.634,0.437 0.863,-0.033 1.621,-0.398 2.276,-1.096 0.654,-0.697 1.017,-1.647 1.085,-2.846 z m -11.192,3.508 -4.458,1.63 -0.594,-0.021 0.113,-3.338 c -0.78,1.233 -1.552,2.09 -2.313,2.569 -0.761,0.479 -1.553,0.704 -2.373,0.677 -1.436,-0.049 -2.612,-0.65 -3.531,-1.806 -1.129,-1.413 -1.656,-3.222 -1.582,-5.427 0.084,-2.465 0.861,-4.479 2.33,-6.043 1.209,-1.281 2.697,-1.892 4.465,-1.832 0.771,0.026 1.432,0.157 1.986,0.396 0.41,0.169 0.868,0.498 1.373,0.983 l 0.146,-4.353 c 0.034,-0.978 -0.005,-1.602 -0.115,-1.87 -0.11,-0.27 -0.313,-0.486 -0.603,-0.653 -0.291,-0.165 -0.827,-0.262 -1.606,-0.288 l 0.02,-0.577 7.487,0.253 -0.02,0.578 -0.391,-0.014 c -0.57,-0.029 -1.063,0.063 -1.478,0.277 -0.2,0.108 -0.361,0.287 -0.478,0.538 -0.119,0.252 -0.194,0.897 -0.23,1.938 l -0.456,13.509 c -0.031,0.926 -0.011,1.515 0.064,1.768 0.074,0.252 0.201,0.443 0.378,0.574 0.179,0.131 0.423,0.202 0.735,0.212 0.249,0.009 0.569,-0.054 0.959,-0.186 z m -4.908,-2.648 0.182,-5.335 c 0.038,-1.155 0.019,-1.915 -0.063,-2.283 -0.126,-0.607 -0.464,-1.15 -1.016,-1.627 -0.551,-0.477 -1.259,-0.729 -2.121,-0.759 -1.039,-0.035 -1.896,0.342 -2.568,1.131 -0.878,1.032 -1.35,2.511 -1.414,4.435 -0.074,2.185 0.347,3.88 1.264,5.087 0.638,0.834 1.415,1.267 2.331,1.298 0.499,0.017 0.996,-0.092 1.493,-0.325 0.38,-0.175 1.017,-0.716 1.912,-1.622 z m -17.239,7.585 0.438,-4.677 -3.324,-0.313 0.101,-1.087 3.326,0.311 0.863,-9.231 c 0.086,-0.922 0.013,-1.556 -0.222,-1.901 -0.234,-0.347 -0.559,-0.538 -0.973,-0.577 -0.343,-0.031 -0.685,0.043 -1.025,0.226 -0.34,0.183 -0.619,0.473 -0.834,0.871 l -0.605,-0.057 c 0.458,-0.982 1.042,-1.698 1.753,-2.149 0.711,-0.45 1.419,-0.643 2.123,-0.576 0.477,0.044 0.932,0.22 1.361,0.526 0.432,0.307 0.732,0.717 0.904,1.229 0.172,0.512 0.209,1.281 0.113,2.307 l -0.896,9.573 2.253,0.211 -0.047,0.513 c -0.591,0.174 -1.21,0.506 -1.857,0.994 -0.646,0.488 -1.238,1.083 -1.773,1.785 -0.275,0.371 -0.673,1.061 -1.196,2.067 z m -6.096,-16.776 c -0.484,-0.065 -0.869,-0.288 -1.154,-0.667 -0.285,-0.38 -0.396,-0.807 -0.332,-1.281 0.064,-0.475 0.285,-0.856 0.666,-1.146 0.381,-0.29 0.807,-0.403 1.281,-0.34 0.476,0.063 0.856,0.286 1.147,0.666 0.29,0.38 0.403,0.808 0.339,1.281 -0.064,0.484 -0.286,0.869 -0.666,1.154 -0.38,0.285 -0.805,0.397 -1.281,0.333 z m -23.845,7.423 c -2.105,-0.506 -3.603,-1.711 -4.493,-3.615 -0.754,-1.626 -0.92,-3.324 -0.494,-5.096 0.299,-1.244 0.899,-2.432 1.803,-3.563 0.904,-1.133 1.957,-1.896 3.158,-2.292 1.203,-0.396 2.447,-0.44 3.732,-0.131 2.094,0.503 3.558,1.737 4.392,3.703 0.704,1.657 0.847,3.36 0.426,5.11 -0.306,1.274 -0.927,2.466 -1.861,3.574 -0.936,1.107 -1.991,1.838 -3.167,2.192 -1.178,0.356 -2.343,0.394 -3.496,0.118 z m 0.707,-0.874 c 0.537,0.13 1.113,0.1 1.731,-0.09 0.618,-0.188 1.189,-0.643 1.716,-1.361 0.525,-0.72 0.939,-1.706 1.24,-2.96 0.485,-2.024 0.503,-3.867 0.051,-5.526 -0.452,-1.66 -1.335,-2.648 -2.65,-2.964 -0.982,-0.236 -1.889,-0.025 -2.721,0.631 -0.832,0.656 -1.484,1.971 -1.958,3.943 -0.593,2.469 -0.528,4.539 0.193,6.211 0.487,1.143 1.286,1.849 2.398,2.116 z m -14.874,-4.645 2.765,-8.981 c 0.391,-1.272 0.501,-2.121 0.325,-2.545 -0.232,-0.551 -0.658,-0.922 -1.273,-1.11 l -1.239,-0.382 0.165,-0.536 8.16,2.511 -0.165,0.537 -0.611,-0.188 c -0.398,-0.123 -0.791,-0.136 -1.181,-0.037 -0.39,0.098 -0.698,0.297 -0.927,0.596 -0.229,0.301 -0.494,0.938 -0.794,1.912 l -2.763,8.98 2.655,0.817 -0.33,1.074 -2.656,-0.817 -0.275,0.895 c -0.42,1.363 -0.993,2.449 -1.722,3.26 -0.728,0.811 -1.632,1.367 -2.711,1.673 -1.078,0.305 -2.181,0.284 -3.306,-0.062 -1.044,-0.322 -1.898,-0.955 -2.566,-1.901 -0.438,-0.625 -0.573,-1.216 -0.401,-1.772 0.093,-0.299 0.308,-0.54 0.648,-0.724 0.339,-0.185 0.658,-0.229 0.956,-0.138 0.229,0.07 0.445,0.227 0.648,0.468 0.203,0.243 0.406,0.691 0.606,1.347 0.201,0.655 0.427,1.125 0.677,1.408 0.251,0.283 0.564,0.484 0.941,0.601 0.458,0.141 0.884,0.138 1.276,-0.007 0.394,-0.146 0.738,-0.453 1.036,-0.923 0.297,-0.47 0.772,-1.769 1.427,-3.896 l 0.304,-0.985 -3.521,-1.083 0.33,-1.074 z m -30.74,-2.82 2.937,-6.705 0.528,0.231 c -0.391,1.362 -0.532,2.521 -0.425,3.479 0.11,0.956 0.477,1.838 1.1,2.645 0.625,0.808 1.374,1.402 2.251,1.787 0.99,0.434 1.943,0.491 2.856,0.17 0.915,-0.322 1.539,-0.869 1.878,-1.641 0.259,-0.591 0.289,-1.219 0.092,-1.885 -0.276,-0.974 -1.266,-2.543 -2.964,-4.707 -1.386,-1.766 -2.296,-3.053 -2.73,-3.863 -0.435,-0.809 -0.677,-1.645 -0.725,-2.506 -0.05,-0.862 0.097,-1.68 0.434,-2.451 0.645,-1.468 1.768,-2.484 3.371,-3.048 1.605,-0.563 3.304,-0.453 5.095,0.332 0.563,0.246 1.073,0.521 1.531,0.823 0.275,0.178 0.811,0.619 1.608,1.327 0.798,0.707 1.32,1.115 1.568,1.224 0.238,0.104 0.458,0.115 0.658,0.033 0.202,-0.083 0.434,-0.333 0.696,-0.752 l 0.529,0.232 -2.913,6.647 -0.528,-0.232 c 0.361,-1.5 0.484,-2.687 0.367,-3.562 -0.116,-0.875 -0.506,-1.73 -1.167,-2.565 -0.663,-0.835 -1.509,-1.479 -2.538,-1.93 -1.191,-0.521 -2.271,-0.619 -3.237,-0.293 -0.966,0.326 -1.638,0.919 -2.013,1.776 -0.209,0.477 -0.289,1.016 -0.239,1.616 0.049,0.601 0.259,1.231 0.627,1.894 0.245,0.449 0.996,1.502 2.246,3.157 1.251,1.655 2.106,2.913 2.564,3.773 0.46,0.858 0.723,1.702 0.793,2.528 0.07,0.825 -0.07,1.639 -0.421,2.439 -0.609,1.391 -1.668,2.355 -3.176,2.894 -1.509,0.538 -3.087,0.446 -4.736,-0.276 -1.029,-0.451 -2.01,-1.182 -2.941,-2.191 -0.43,-0.473 -0.754,-0.757 -0.973,-0.853 -0.248,-0.108 -0.483,-0.124 -0.705,-0.045 -0.223,0.079 -0.479,0.322 -0.771,0.728 z m -7.794,-11.761 c -1.905,-1.025 -3.046,-2.574 -3.421,-4.643 -0.313,-1.765 -0.04,-3.449 0.823,-5.052 0.608,-1.127 1.492,-2.122 2.653,-2.985 1.163,-0.863 2.376,-1.333 3.641,-1.408 1.264,-0.076 2.478,0.199 3.641,0.826 1.896,1.021 2.997,2.589 3.301,4.702 0.258,1.781 -0.041,3.464 -0.894,5.05 -0.622,1.154 -1.526,2.148 -2.713,2.98 -1.188,0.832 -2.395,1.269 -3.623,1.311 -1.227,0.042 -2.363,-0.218 -3.408,-0.781 z m 0.907,-0.663 c 0.485,0.261 1.052,0.38 1.697,0.354 0.645,-0.023 1.313,-0.316 2.006,-0.878 0.691,-0.562 1.344,-1.41 1.955,-2.546 0.986,-1.832 1.475,-3.608 1.461,-5.329 -0.013,-1.721 -0.615,-2.901 -1.806,-3.542 -0.888,-0.479 -1.819,-0.508 -2.791,-0.086 -0.972,0.422 -1.939,1.526 -2.9,3.313 -1.204,2.235 -1.67,4.253 -1.399,6.054 0.177,1.232 0.77,2.117 1.777,2.66 z m -13.192,-8.302 4.976,-7.97 c 0.705,-1.131 1.028,-1.922 0.969,-2.376 -0.084,-0.593 -0.4,-1.06 -0.947,-1.401 l -1.1,-0.686 0.298,-0.477 7.242,4.521 -0.298,0.477 -0.542,-0.339 c -0.354,-0.221 -0.73,-0.333 -1.133,-0.338 -0.4,-0.006 -0.751,0.107 -1.048,0.338 -0.298,0.231 -0.716,0.779 -1.256,1.645 l -4.977,7.971 2.357,1.472 -0.595,0.953 -2.358,-1.472 -0.495,0.795 c -0.755,1.209 -1.588,2.112 -2.5,2.708 -0.912,0.597 -1.929,0.903 -3.05,0.921 -1.121,0.018 -2.18,-0.285 -3.178,-0.908 -0.927,-0.578 -1.592,-1.41 -1.994,-2.495 -0.263,-0.716 -0.24,-1.322 0.067,-1.815 0.166,-0.266 0.437,-0.443 0.812,-0.534 0.376,-0.091 0.695,-0.054 0.96,0.112 0.204,0.127 0.372,0.333 0.506,0.619 0.134,0.286 0.216,0.771 0.241,1.457 0.026,0.685 0.124,1.196 0.292,1.535 0.171,0.338 0.421,0.612 0.757,0.821 0.407,0.254 0.818,0.36 1.236,0.321 0.416,-0.041 0.829,-0.249 1.236,-0.627 0.408,-0.377 1.201,-1.511 2.38,-3.399 l 0.546,-0.874 -3.125,-1.95 0.596,-0.954 z m -11.284,-0.507 2.672,-3.863 -2.747,-1.9 0.621,-0.898 2.747,1.899 5.273,-7.626 c 0.526,-0.762 0.772,-1.351 0.737,-1.767 -0.035,-0.416 -0.224,-0.743 -0.565,-0.979 -0.282,-0.195 -0.617,-0.297 -1.004,-0.305 -0.386,-0.008 -0.771,0.108 -1.152,0.35 l -0.502,-0.346 c 0.88,-0.631 1.74,-0.97 2.581,-1.015 0.841,-0.045 1.552,0.134 2.134,0.536 0.395,0.272 0.703,0.648 0.93,1.127 0.225,0.479 0.287,0.982 0.186,1.514 -0.102,0.53 -0.445,1.22 -1.031,2.066 l -5.468,7.91 1.861,1.286 -0.293,0.424 c -0.601,-0.138 -1.303,-0.151 -2.105,-0.043 -0.802,0.109 -1.61,0.339 -2.421,0.688 -0.422,0.189 -1.106,0.595 -2.055,1.217 z m -1.279,-6.319 -4.654,-3.776 0.364,-0.448 c 0.454,0.315 0.797,0.466 1.029,0.453 0.232,-0.014 0.439,-0.133 0.622,-0.359 0.204,-0.25 0.382,-0.608 0.533,-1.076 l 2.808,-8.314 -6.607,3.263 -0.698,2.146 c -0.198,0.643 -0.217,1.185 -0.053,1.626 0.086,0.258 0.362,0.595 0.827,1.013 l -0.364,0.448 -5.284,-4.288 0.363,-0.448 c 0.603,0.447 1.1,0.678 1.493,0.688 0.266,0.002 0.514,-0.139 0.743,-0.421 0.132,-0.162 0.233,-0.354 0.307,-0.575 l 2.651,-8.422 -7.325,4.247 c -0.516,0.306 -0.878,0.587 -1.089,0.846 -0.123,0.153 -0.156,0.354 -0.097,0.604 0.059,0.25 0.313,0.569 0.76,0.959 l -0.364,0.448 -3.503,-2.842 0.364,-0.449 c 0.787,0.466 1.692,0.408 2.712,-0.171 l 11.468,-6.553 0.498,0.403 -2.979,9.342 8.989,-4.465 0.449,0.364 -4.01,12.224 c -0.244,0.78 -0.337,1.365 -0.278,1.755 0.06,0.39 0.289,0.834 0.689,1.332 z m -16.229,-30.207 c 1.843,0.209 2.96,0.38 3.351,0.514 0.585,0.205 1.105,0.529 1.561,0.971 0.709,0.689 1.058,1.498 1.046,2.43 -0.013,0.931 -0.402,1.792 -1.171,2.583 -0.485,0.501 -1.019,0.825 -1.598,0.973 -0.798,0.211 -1.795,0.172 -2.987,-0.115 -1.192,-0.288 -2.981,-0.967 -5.367,-2.035 l -0.392,0.403 c -0.992,1.022 -1.511,1.882 -1.556,2.578 -0.046,0.695 0.241,1.345 0.861,1.946 0.47,0.457 0.967,0.692 1.49,0.706 0.529,0.022 0.954,-0.131 1.272,-0.46 l 0.608,-0.671 c 0.334,-0.344 0.679,-0.523 1.035,-0.54 0.356,-0.017 0.678,0.114 0.961,0.39 0.275,0.268 0.407,0.584 0.395,0.948 -0.014,0.364 -0.183,0.715 -0.51,1.051 -0.623,0.642 -1.523,0.913 -2.703,0.813 -1.178,-0.101 -2.361,-0.727 -3.549,-1.88 -0.91,-0.884 -1.507,-1.762 -1.793,-2.633 -0.217,-0.66 -0.189,-1.337 0.08,-2.033 0.178,-0.451 0.748,-1.174 1.712,-2.166 l 3.382,-3.482 c 0.95,-0.978 1.513,-1.596 1.689,-1.852 0.178,-0.256 0.259,-0.464 0.244,-0.622 -0.014,-0.157 -0.076,-0.291 -0.188,-0.4 -0.118,-0.115 -0.249,-0.19 -0.389,-0.226 -0.251,-0.056 -0.818,-0.076 -1.7,-0.063 l 0.608,-0.627 c 1.923,-0.308 3.266,-0.093 4.027,0.647 0.365,0.355 0.533,0.765 0.503,1.229 -0.026,0.463 -0.336,1.004 -0.922,1.623 z m -0.708,0.728 -3.794,3.909 c 1.562,0.646 2.598,1.035 3.107,1.168 0.908,0.244 1.664,0.31 2.266,0.198 0.602,-0.112 1.109,-0.38 1.522,-0.806 0.522,-0.538 0.795,-1.14 0.817,-1.807 0.023,-0.666 -0.173,-1.201 -0.592,-1.607 -0.565,-0.55 -1.676,-0.902 -3.326,-1.055 z m -15.597,0.563 2.373,-2.17 c -2.39,0.564 -4.01,0.382 -4.859,-0.547 -0.386,-0.423 -0.577,-0.89 -0.573,-1.4 0.005,-0.513 0.176,-0.923 0.515,-1.231 0.299,-0.274 0.644,-0.406 1.033,-0.396 0.391,0.011 0.711,0.153 0.964,0.43 0.245,0.269 0.389,0.69 0.431,1.268 0.04,0.576 0.134,0.944 0.281,1.105 0.127,0.139 0.34,0.218 0.642,0.239 0.631,0.057 1.476,-0.06 2.535,-0.352 l 5.055,-4.626 c 0.583,-0.534 0.958,-1.011 1.124,-1.43 0.117,-0.29 0.127,-0.624 0.033,-1.004 -0.094,-0.38 -0.357,-0.808 -0.794,-1.284 l 0.415,-0.379 4.941,5.4 -0.415,0.38 c -0.491,-0.538 -0.94,-0.859 -1.348,-0.966 -0.299,-0.08 -0.618,-0.035 -0.957,0.134 -0.165,0.081 -0.556,0.403 -1.169,0.965 l -4.089,3.739 c -1.228,1.125 -1.937,1.818 -2.125,2.083 -0.188,0.264 -0.274,0.513 -0.259,0.745 0.014,0.232 0.114,0.448 0.297,0.648 0.217,0.238 0.521,0.453 0.909,0.648 l -0.31,0.494 -4.207,-2.01 z M 93,-150.744 c 1.653,-1.33 2.622,-2.779 2.902,-4.348 0.282,-1.569 -0.021,-2.898 -0.904,-3.988 -0.591,-0.728 -1.305,-1.197 -2.141,-1.41 -0.837,-0.213 -1.887,-0.107 -3.15,0.316 l -0.063,-0.572 c 1.245,-0.729 2.652,-1.055 4.223,-0.977 1.571,0.078 2.855,0.731 3.853,1.96 1.082,1.332 1.489,2.896 1.222,4.687 -0.267,1.792 -1.277,3.4 -3.03,4.823 -1.899,1.541 -3.774,2.256 -5.627,2.146 -1.853,-0.111 -3.376,-0.902 -4.569,-2.373 -1.01,-1.243 -1.429,-2.599 -1.259,-4.064 0.171,-1.465 0.942,-2.755 2.316,-3.87 z m -0.704,0.57 -4.172,-5.138 c -0.677,0.617 -1.108,1.109 -1.295,1.474 -0.288,0.57 -0.399,1.159 -0.333,1.769 0.065,0.61 0.275,1.134 0.63,1.569 0.544,0.671 1.292,1.059 2.242,1.165 0.95,0.106 1.927,-0.173 2.928,-0.839 z m -33.126,-26.869 5.876,-4.182 0.253,0.412 c -1.496,1.679 -2.335,3.275 -2.514,4.791 -0.18,1.515 0.168,2.985 1.047,4.413 0.736,1.196 1.704,2.091 2.906,2.684 1.201,0.593 2.636,0.757 4.307,0.493 1.67,-0.264 3.493,-1.003 5.47,-2.219 1.631,-1.003 2.884,-2.134 3.759,-3.394 0.874,-1.258 1.309,-2.609 1.301,-4.052 -0.009,-1.443 -0.426,-2.838 -1.255,-4.185 -0.72,-1.171 -1.605,-2.05 -2.655,-2.636 -1.053,-0.588 -2.652,-0.96 -4.801,-1.116 l 0.013,-0.576 c 2.159,-0.083 3.983,0.25 5.47,0.998 1.484,0.747 2.738,1.95 3.758,3.606 1.836,2.987 2.151,5.982 0.944,8.984 -0.896,2.238 -2.462,4.043 -4.695,5.417 -1.8,1.106 -3.7,1.72 -5.702,1.84 -2.004,0.12 -3.854,-0.271 -5.553,-1.176 -1.699,-0.905 -3.062,-2.194 -4.093,-3.869 -0.8,-1.303 -1.272,-2.784 -1.414,-4.444 -0.034,-0.492 -0.1,-0.817 -0.198,-0.978 -0.146,-0.239 -0.359,-0.396 -0.637,-0.47 -0.381,-0.083 -0.814,-0.042 -1.299,0.121 z m 0.939,-13.346 c -0.967,-1.938 -1.007,-3.859 -0.121,-5.767 0.76,-1.623 1.954,-2.842 3.585,-3.654 1.145,-0.571 2.441,-0.876 3.889,-0.911 1.447,-0.036 2.709,0.278 3.786,0.945 1.076,0.666 1.91,1.591 2.5,2.773 0.962,1.928 0.957,3.842 -0.013,5.744 -0.814,1.605 -2.027,2.81 -3.64,3.613 -1.172,0.585 -2.483,0.876 -3.935,0.873 -1.448,-0.004 -2.687,-0.342 -3.715,-1.016 -1.026,-0.671 -1.806,-1.539 -2.336,-2.6 z m 1.125,-0.02 c 0.246,0.494 0.64,0.916 1.182,1.268 0.541,0.353 1.258,0.498 2.146,0.438 0.889,-0.06 1.911,-0.378 3.065,-0.954 1.862,-0.929 3.283,-2.101 4.265,-3.515 0.98,-1.414 1.168,-2.726 0.565,-3.937 -0.451,-0.902 -1.195,-1.462 -2.233,-1.677 -1.036,-0.215 -2.464,0.131 -4.279,1.037 -2.271,1.133 -3.815,2.514 -4.632,4.143 -0.564,1.108 -0.59,2.173 -0.079,3.197 z m -4.13,-13.704 c -2.5,-0.79 -4.038,-1.889 -4.611,-3.295 -0.295,-0.723 -0.367,-1.418 -0.219,-2.086 0.15,-0.668 0.577,-1.324 1.28,-1.971 0.492,-0.447 1.335,-0.914 2.53,-1.401 l 5.651,-2.302 c 0.839,-0.342 1.379,-0.642 1.624,-0.897 0.197,-0.204 0.315,-0.452 0.354,-0.743 0.039,-0.291 -0.07,-0.754 -0.33,-1.391 l 0.521,-0.211 2.667,6.547 -0.521,0.213 -0.111,-0.275 c -0.252,-0.616 -0.521,-1.01 -0.809,-1.179 -0.288,-0.169 -0.635,-0.228 -1.041,-0.175 -0.16,0.021 -0.62,0.186 -1.382,0.496 l -5.421,2.208 c -1.204,0.491 -2.015,1.003 -2.432,1.539 -0.417,0.534 -0.474,1.174 -0.172,1.915 0.466,1.146 1.559,2.033 3.274,2.66 l 6.981,-2.844 c 0.896,-0.365 1.429,-0.645 1.598,-0.836 0.225,-0.249 0.354,-0.518 0.388,-0.807 0.034,-0.29 -0.096,-0.795 -0.391,-1.519 l 0.521,-0.212 2.667,6.548 -0.521,0.212 -0.117,-0.289 c -0.274,-0.675 -0.631,-1.06 -1.069,-1.156 -0.438,-0.096 -1.139,0.051 -2.104,0.443 l -4.914,2.002 c -1.591,0.647 -2.544,1.079 -2.861,1.292 -0.317,0.214 -0.509,0.421 -0.572,0.621 -0.064,0.2 -0.046,0.427 0.056,0.677 0.109,0.27 0.313,0.563 0.611,0.881 l -0.432,0.428 -3.245,-3.33 -0.252,-0.621 z m -6.81,-9.929 -2.056,-6.405 0.55,-0.177 0.133,0.416 c 0.125,0.387 0.313,0.651 0.566,0.794 0.255,0.143 0.539,0.163 0.856,0.062 0.346,-0.111 0.724,-0.348 1.133,-0.709 l 6.503,-5.579 -8.823,-0.676 c -0.628,-0.049 -1.085,-0.028 -1.372,0.064 -0.139,0.045 -0.239,0.12 -0.304,0.229 -0.114,0.156 -0.171,0.328 -0.172,0.514 0,0.186 0.084,0.536 0.248,1.052 l -0.55,0.177 -1.426,-4.443 0.55,-0.177 c 0.204,0.502 0.423,0.825 0.655,0.97 0.409,0.252 1.004,0.404 1.786,0.459 l 13.231,1.08 0.198,0.608 -9.928,8.548 c -0.465,0.39 -0.782,0.721 -0.951,0.993 -0.17,0.273 -0.284,0.589 -0.345,0.946 -0.034,0.198 -0.012,0.557 0.067,1.077 z m -0.523,-20.185 c 2.065,-0.492 3.562,-1.386 4.489,-2.682 0.927,-1.296 1.224,-2.627 0.893,-3.992 -0.222,-0.91 -0.664,-1.641 -1.328,-2.191 -0.663,-0.551 -1.656,-0.906 -2.981,-1.065 l 0.189,-0.544 c 1.437,-0.125 2.847,0.186 4.233,0.93 1.387,0.746 2.266,1.887 2.639,3.423 0.406,1.669 0.104,3.255 -0.906,4.759 -1.011,1.504 -2.613,2.521 -4.809,3.055 -2.375,0.578 -4.376,0.42 -6.002,-0.476 -1.625,-0.896 -2.663,-2.263 -3.11,-4.104 -0.377,-1.557 -0.177,-2.961 0.608,-4.211 0.782,-1.251 2.033,-2.085 3.752,-2.503 z m -0.879,0.213 -1.563,-6.431 c -0.877,0.268 -1.479,0.525 -1.804,0.775 -0.505,0.392 -0.856,0.876 -1.059,1.455 -0.203,0.579 -0.237,1.142 -0.104,1.688 0.203,0.839 0.713,1.511 1.525,2.015 0.813,0.504 1.815,0.67 3.005,0.498 z m -8.296,-14.98 3.164,-0.571 c -2.322,-0.796 -3.596,-1.814 -3.819,-3.053 -0.103,-0.563 -0.015,-1.061 0.261,-1.491 0.277,-0.431 0.641,-0.687 1.092,-0.768 0.398,-0.073 0.761,0 1.085,0.216 0.326,0.216 0.521,0.509 0.587,0.877 0.065,0.358 -0.039,0.793 -0.312,1.302 -0.272,0.51 -0.39,0.871 -0.352,1.086 0.034,0.186 0.173,0.366 0.416,0.544 0.503,0.385 1.281,0.736 2.332,1.054 l 6.742,-1.219 c 0.779,-0.142 1.35,-0.345 1.715,-0.611 0.252,-0.184 0.439,-0.46 0.563,-0.832 0.122,-0.371 0.126,-0.874 0.012,-1.509 l 0.554,-0.1 1.301,7.202 -0.552,0.101 c -0.13,-0.717 -0.339,-1.229 -0.627,-1.536 -0.211,-0.226 -0.503,-0.357 -0.881,-0.396 -0.183,-0.021 -0.684,0.044 -1.503,0.192 l -5.453,0.986 c -1.638,0.296 -2.608,0.505 -2.908,0.628 -0.3,0.124 -0.505,0.287 -0.617,0.492 -0.11,0.205 -0.142,0.441 -0.094,0.707 0.059,0.317 0.199,0.662 0.425,1.034 l -0.524,0.253 -2.49,-3.942 z m 7.822,-11.252 c -0.321,0.918 -0.834,1.654 -1.538,2.21 -0.705,0.555 -1.516,0.887 -2.437,0.995 -1.405,0.167 -2.677,-0.22 -3.815,-1.159 -1.137,-0.939 -1.804,-2.235 -2,-3.89 -0.161,-1.354 0.032,-2.565 0.576,-3.636 l -0.355,-3.007 c -0.054,-0.444 -0.069,-0.704 -0.054,-0.78 0.018,-0.075 0.055,-0.132 0.113,-0.17 0.087,-0.073 0.248,-0.124 0.486,-0.151 0.269,-0.032 0.457,-0.028 0.566,0.012 0.056,0.023 0.104,0.073 0.143,0.146 0.041,0.074 0.088,0.334 0.14,0.778 l 0.218,1.845 c 0.676,-0.667 1.593,-1.069 2.751,-1.206 1.322,-0.156 2.514,0.217 3.573,1.118 1.061,0.901 1.691,2.204 1.892,3.909 0.084,0.703 0.066,1.434 -0.054,2.191 0.446,0.409 0.826,0.675 1.14,0.801 0.313,0.125 0.574,0.175 0.78,0.15 0.176,-0.021 0.337,-0.126 0.48,-0.315 0.146,-0.19 0.226,-0.538 0.238,-1.042 0.008,-0.294 -0.043,-1.022 -0.147,-2.184 -0.2,-2.135 -0.291,-3.522 -0.272,-4.163 0.021,-0.979 0.287,-1.787 0.797,-2.43 0.512,-0.642 1.19,-1.013 2.037,-1.112 1.168,-0.139 2.328,0.28 3.48,1.254 1.699,1.434 2.702,3.447 3.01,6.041 0.235,1.994 -0.015,3.731 -0.75,5.213 -0.427,0.836 -0.918,1.287 -1.477,1.353 -0.246,0.029 -0.502,0.002 -0.764,-0.082 -0.403,-0.131 -0.979,-0.43 -1.725,-0.896 -0.102,-0.061 -0.722,-0.522 -1.86,-1.383 -0.257,0.575 -0.5,0.989 -0.726,1.241 -0.228,0.252 -0.5,0.397 -0.821,0.435 -0.362,0.043 -0.803,-0.055 -1.323,-0.291 -0.52,-0.237 -1.287,-0.835 -2.302,-1.795 z m -9.015,-1.668 c 0.09,0.765 0.472,1.369 1.143,1.814 0.67,0.444 1.637,0.592 2.896,0.442 1.633,-0.193 2.856,-0.694 3.673,-1.503 0.618,-0.619 0.879,-1.34 0.781,-2.168 -0.094,-0.785 -0.464,-1.396 -1.113,-1.833 -0.648,-0.437 -1.604,-0.58 -2.865,-0.431 -1.641,0.193 -2.887,0.703 -3.731,1.526 -0.621,0.609 -0.882,1.326 -0.784,2.153 z m 14.21,1.211 c 0.585,0.424 1.119,0.732 1.603,0.927 0.484,0.195 0.918,0.269 1.3,0.224 0.497,-0.059 0.895,-0.41 1.195,-1.054 0.52,-1.108 0.663,-2.64 0.432,-4.593 -0.22,-1.86 -0.711,-3.193 -1.471,-3.999 -0.761,-0.806 -1.514,-1.165 -2.257,-1.077 -0.538,0.063 -0.889,0.372 -1.054,0.926 -0.164,0.564 -0.173,1.646 -0.025,3.241 0.213,2.332 0.306,4.133 0.277,5.405 z M 43.289,-274.58 c 2.121,-0.085 3.762,-0.674 4.921,-1.77 1.158,-1.093 1.706,-2.342 1.643,-3.745 -0.042,-0.936 -0.335,-1.737 -0.882,-2.405 -0.545,-0.668 -1.452,-1.208 -2.721,-1.619 l 0.29,-0.497 c 1.434,0.153 2.759,0.729 3.976,1.726 1.218,0.998 1.861,2.287 1.932,3.867 0.078,1.715 -0.523,3.213 -1.804,4.495 -1.281,1.282 -3.049,1.973 -5.306,2.075 -2.441,0.109 -4.375,-0.431 -5.799,-1.622 -1.424,-1.19 -2.178,-2.731 -2.263,-4.624 -0.072,-1.601 0.396,-2.939 1.404,-4.016 1.009,-1.077 2.396,-1.655 4.164,-1.735 z m -0.903,0.041 -0.298,-6.611 c -0.912,0.094 -1.553,0.231 -1.92,0.415 -0.57,0.285 -1.01,0.693 -1.319,1.224 -0.31,0.529 -0.452,1.074 -0.427,1.636 0.04,0.863 0.41,1.62 1.11,2.271 0.702,0.649 1.653,1.004 2.854,1.065 z m -2.252,-16.317 c -1.972,-1.729 -2.938,-3.354 -2.896,-4.873 0.022,-0.78 0.235,-1.445 0.642,-1.997 0.405,-0.551 1.06,-0.98 1.963,-1.289 0.631,-0.211 1.591,-0.299 2.881,-0.265 l 6.101,0.167 c 0.904,0.025 1.521,-0.03 1.847,-0.168 0.264,-0.107 0.472,-0.285 0.624,-0.537 0.153,-0.25 0.238,-0.72 0.257,-1.406 l 0.562,0.016 -0.193,7.068 -0.562,-0.016 0.009,-0.296 c 0.018,-0.666 -0.071,-1.134 -0.267,-1.405 -0.195,-0.271 -0.489,-0.463 -0.882,-0.578 -0.155,-0.046 -0.644,-0.081 -1.466,-0.103 l -5.852,-0.16 c -1.299,-0.036 -2.248,0.108 -2.844,0.429 -0.598,0.322 -0.907,0.885 -0.929,1.685 -0.034,1.237 0.608,2.489 1.926,3.754 l 7.537,0.206 c 0.967,0.026 1.566,-0.015 1.798,-0.123 0.307,-0.137 0.533,-0.33 0.681,-0.582 0.146,-0.251 0.231,-0.767 0.253,-1.547 l 0.562,0.016 -0.193,7.067 -0.562,-0.015 0.008,-0.313 c 0.021,-0.728 -0.151,-1.225 -0.513,-1.489 -0.362,-0.265 -1.063,-0.412 -2.104,-0.44 l -5.304,-0.145 c -1.717,-0.048 -2.764,-0.037 -3.14,0.031 -0.377,0.067 -0.635,0.18 -0.775,0.337 -0.139,0.158 -0.212,0.372 -0.22,0.642 -0.009,0.292 0.061,0.643 0.206,1.053 l -0.568,0.219 -1.63,-4.354 0.019,-0.671 z m 7.889,-23.707 c 1.836,0.569 3.202,1.464 4.101,2.684 0.898,1.218 1.279,2.506 1.145,3.862 -0.161,1.615 -0.979,2.956 -2.457,4.021 -1.477,1.066 -3.368,1.483 -5.678,1.253 -2.236,-0.223 -3.986,-1.069 -5.252,-2.539 -1.265,-1.47 -1.804,-3.137 -1.619,-5.001 0.14,-1.397 0.625,-2.51 1.454,-3.337 0.831,-0.827 1.645,-1.201 2.441,-1.121 0.395,0.039 0.7,0.197 0.917,0.476 0.219,0.278 0.305,0.646 0.26,1.101 -0.062,0.611 -0.304,1.052 -0.728,1.323 -0.235,0.154 -0.662,0.229 -1.278,0.226 -0.616,-0.003 -1.104,0.159 -1.461,0.49 -0.347,0.33 -0.552,0.817 -0.615,1.459 -0.104,1.036 0.197,1.908 0.9,2.616 0.931,0.939 2.229,1.492 3.896,1.659 1.699,0.169 3.239,-0.098 4.621,-0.803 1.384,-0.703 2.146,-1.765 2.287,-3.184 0.101,-1.014 -0.155,-1.96 -0.768,-2.837 -0.42,-0.617 -1.23,-1.258 -2.43,-1.921 z m -2.763,-4.967 c 2.092,0.362 3.818,0.131 5.182,-0.695 1.363,-0.825 2.161,-1.932 2.394,-3.316 0.155,-0.924 0.038,-1.77 -0.355,-2.537 -0.393,-0.767 -1.167,-1.486 -2.321,-2.155 l 0.388,-0.425 c 1.37,0.452 2.545,1.292 3.525,2.523 0.979,1.23 1.339,2.625 1.075,4.186 -0.283,1.692 -1.186,3.032 -2.708,4.016 -1.521,0.984 -3.396,1.288 -5.623,0.914 -2.41,-0.405 -4.188,-1.341 -5.328,-2.804 -1.142,-1.463 -1.556,-3.129 -1.241,-4.996 0.265,-1.58 1.005,-2.791 2.217,-3.633 1.212,-0.84 2.691,-1.113 4.436,-0.82 z m -0.893,-0.15 1.098,-6.527 c -0.911,-0.1 -1.565,-0.1 -1.963,0.003 -0.618,0.159 -1.133,0.466 -1.548,0.919 -0.414,0.452 -0.667,0.956 -0.76,1.51 -0.145,0.852 0.059,1.67 0.607,2.453 0.548,0.783 1.406,1.331 2.566,1.642 z"
     id="path84"
     style="fill:url(#SVGID_8_)" /></g>






</svg>
