<?xml version="1.0" encoding="utf-8"?>
<!-- Generator: Adobe Illustrator 16.0.0, SVG Export Plug-In . SVG Version: 6.00 Build 0)  -->
<!DOCTYPE svg PUBLIC "-//W3C//DTD SVG 1.1//EN" "http://www.w3.org/Graphics/SVG/1.1/DTD/svg11.dtd">
<svg version="1.1"
	 id="svg16" xmlns:inkscape="http://www.inkscape.org/namespaces/inkscape" xmlns:sodipodi="http://sodipodi.sourceforge.net/DTD/sodipodi-0.dtd" xmlns:svg="http://www.w3.org/2000/svg" inkscape:version="1.2.2 (732a01da63, 2022-12-09)" sodipodi:docname="airlab.svg"
	 xmlns="http://www.w3.org/2000/svg" xmlns:xlink="http://www.w3.org/1999/xlink" x="0px" y="0px" width="56px" height="56px"
	 viewBox="0 0 56 56" enable-background="new 0 0 56 56" xml:space="preserve">
<sodipodi:namedview  inkscape:cy="17.428227" inkscape:cx="0.40530761" inkscape:zoom="7.4017855" showgrid="false" borderopacity="0.25" bordercolor="#000000" pagecolor="#ffffff" id="namedview18" inkscape:current-layer="svg16" inkscape:window-maximized="1" inkscape:window-y="-8" inkscape:window-x="-8" inkscape:window-height="1009" inkscape:deskcolor="#d1d1d1" inkscape:pagecheckerboard="0" inkscape:pageopacity="0.0" inkscape:window-width="2560" inkscape:showpageshadow="2">
	<inkscape:page  width="56" height="56" y="0" x="0" id="page543"></inkscape:page>
	<inkscape:page  width="1365.3333" height="1365.3333" y="0" x="66" id="page545"></inkscape:page>
	<inkscape:page  width="1365.3333" height="1365.3333" y="0" x="1441.3333" id="page552"></inkscape:page>
	<inkscape:page  width="1365.3333" height="1365.3333" y="0" x="2816.6665" id="page559"></inkscape:page>
	<inkscape:page  width="1365.333" height="1365.3333" y="0" x="4192" id="page566"></inkscape:page>
	<inkscape:page  width="1365.3335" height="1365.3333" y="0" x="5567.333" id="page573"></inkscape:page>
</sodipodi:namedview>
<g id="g8">
	<title  id="title2">background</title>
	<rect id="canvas_background" x="-1" y="-1" fill="#FFFFFF" width="58" height="58"/>
	<g id="canvasGrid" display="none">
		<rect id="rect5" display="inline" fill="none" width="56" height="56"/>
	</g>
</g>
<g>
	<g>
		<path fill="#009FBA" d="M22.088,17.255l-4.547-4.134c-0.862,0.814-1.73,1.623-2.588,2.443c-1.581,1.51-3.154,3.04-4.771,4.51
			c-1.12,1.019-2.327,1.918-2.981,3.331c-0.813,1.752-1.293,3.642-1.57,5.55c-0.31,2.137-0.305,4.348,0.417,6.407
			c0.42,1.196,1.128,2.382,1.984,3.322c5.65,6.201,13.367,6.27,18.879,2.825c2.342-1.465,3.906-3.53,5.788-5.547
			c0.585-0.626,1.269-1.109,1.826-1.757c0.376-0.438,0.917-1.055,1.206-1.551c0.232-0.399,0.563-0.755,0.577-1.199
			c0.017-0.565,0.029-1.127-0.019-1.691c-0.161-1.897-1.564-2.795-3.422-2.333c-0.724,0.18-1.521,0.709-2.163,1.083
			c-0.68,0.397-1,1.102-1.589,1.626c-1.087,0.968-2.212,2.082-3.152,3.187c-1.203,1.413-2.797,2.837-4.655,3.333
			c-1.205,0.323-2.557,0.168-3.768-0.043c-6.339-1.103-5.513-7.097-4.823-9.164C13.407,25.386,22.088,17.255,22.088,17.255z"/>
		<path fill="#009FBA" d="M33.91,39.663l4.548,4.134c0.862-0.813,1.73-1.623,2.589-2.442c1.58-1.51,3.154-3.039,4.771-4.51
			c1.119-1.019,2.326-1.919,2.98-3.331c0.813-1.753,1.293-3.643,1.57-5.55c0.31-2.137,0.305-4.347-0.418-6.407
			c-0.42-1.197-1.129-2.383-1.984-3.322c-5.65-6.202-13.367-6.271-18.879-2.825c-2.343,1.464-3.906,3.529-5.788,5.547
			c-0.585,0.625-1.269,1.108-1.826,1.757c-0.376,0.438-0.917,1.054-1.206,1.55c-0.233,0.399-0.564,0.754-0.577,1.199
			c-0.017,0.565-0.03,1.127,0.018,1.691c0.162,1.897,1.564,2.795,3.421,2.333c0.724-0.18,1.521-0.709,2.163-1.083
			c0.68-0.397,1-1.102,1.589-1.625c1.087-0.968,2.212-2.083,3.153-3.187c1.202-1.414,2.797-2.837,4.655-3.333
			c1.204-0.323,2.557-0.168,3.768,0.043c6.339,1.103,5.513,7.097,4.823,9.164C42.593,31.532,33.91,39.663,33.91,39.663z"/>
	</g>
	<path fill="#009FBA" d="M38.458,48.85c-1.375,0-2.691-0.509-3.708-1.433l-3.2-2.91c-0.566,0.45-1.133,0.852-1.716,1.216
		c-3.272,2.046-7.001,3.127-10.786,3.127c-5.669,0-11.028-2.455-15.091-6.912c-1.347-1.48-2.451-3.33-3.11-5.211
		c-0.943-2.686-1.163-5.637-0.672-9.022c0.385-2.658,1.047-4.973,2.024-7.078c1.035-2.232,2.624-3.632,3.784-4.654l0.498-0.443
		c1.238-1.126,2.457-2.295,3.674-3.462l0.987-0.946c0.525-0.502,1.051-0.996,1.577-1.49l1.039-0.979
		c1.025-0.968,2.367-1.502,3.781-1.502c1.374,0,2.69,0.509,3.708,1.433l3.201,2.91c0.566-0.45,1.133-0.853,1.717-1.217
		c3.272-2.044,7.001-3.125,10.786-3.125c5.67,0,11.029,2.455,15.091,6.912c1.346,1.479,2.451,3.329,3.11,5.211
		c0.942,2.686,1.162,5.637,0.672,9.023c-0.386,2.658-1.048,4.973-2.024,7.078c-1.032,2.229-2.62,3.629-3.78,4.651l-0.502,0.447
		c-1.231,1.119-2.445,2.283-3.658,3.445l-1.005,0.962c-0.585,0.559-1.172,1.11-1.757,1.662l-0.857,0.807
		C41.214,48.315,39.871,48.85,38.458,48.85z M31.581,41.942c0.266,0,0.531,0.096,0.741,0.286l3.912,3.556
		c1.234,1.123,3.277,1.107,4.493-0.042l0.858-0.807c0.583-0.549,1.166-1.098,1.745-1.649l0.998-0.955
		c1.231-1.182,2.459-2.358,3.714-3.5l0.512-0.455c1.132-0.996,2.406-2.122,3.245-3.931c0.885-1.908,1.487-4.024,1.843-6.467
		c0.438-3.025,0.251-5.634-0.57-7.977c-0.564-1.608-1.51-3.191-2.66-4.456c-3.639-3.992-8.418-6.191-13.461-6.191
		c-3.37,0-6.695,0.964-9.616,2.789c-0.744,0.465-1.461,1.002-2.191,1.641c-0.422,0.368-1.054,0.36-1.467-0.014l-3.911-3.556
		c-1.238-1.125-3.279-1.104-4.494,0.041l-1.041,0.981c-0.522,0.49-1.043,0.98-1.563,1.476l-0.979,0.94
		c-1.237,1.185-2.471,2.368-3.731,3.515l-0.511,0.456c-1.13,0.996-2.406,2.12-3.246,3.931c-0.885,1.909-1.488,4.024-1.843,6.467
		c-0.438,3.025-0.251,5.634,0.57,7.977c0.564,1.608,1.509,3.19,2.661,4.456c3.639,3.992,8.419,6.191,13.46,6.191
		c3.371,0,6.697-0.965,9.616-2.79c0.743-0.466,1.46-1.002,2.192-1.64C31.064,42.032,31.322,41.942,31.581,41.942z"/>
</g>
</svg>
