<?xml version="1.0" encoding="UTF-8" standalone="no"?>
<!-- Created with Inkscape (http://www.inkscape.org/) -->

<svg
   version="1.1"
   id="svg2"
   width="537.26709"
   height="533.26373"
   viewBox="0 0 537.26708 533.26374"
   sodipodi:docname="khu.svg"
   xml:space="preserve"
   inkscape:version="1.2.2 (732a01da63, 2022-12-09)"
   xmlns:inkscape="http://www.inkscape.org/namespaces/inkscape"
   xmlns:sodipodi="http://sodipodi.sourceforge.net/DTD/sodipodi-0.dtd"
   xmlns="http://www.w3.org/2000/svg"
   xmlns:svg="http://www.w3.org/2000/svg"><defs
     id="defs6"><clipPath
       clipPathUnits="userSpaceOnUse"
       id="clipPath16"><path
         d="M 0,595.28 H 841.89 V 0 H 0 Z"
         id="path14" /></clipPath></defs><sodipodi:namedview
     id="namedview4"
     pagecolor="#ffffff"
     bordercolor="#000000"
     borderopacity="0.25"
     inkscape:showpageshadow="2"
     inkscape:pageopacity="0.0"
     inkscape:pagecheckerboard="0"
     inkscape:deskcolor="#d1d1d1"
     showgrid="false"
     inkscape:zoom="0.73854933"
     inkscape:cx="258.61509"
     inkscape:cy="176.02074"
     inkscape:window-width="2560"
     inkscape:window-height="1009"
     inkscape:window-x="-8"
     inkscape:window-y="-8"
     inkscape:window-maximized="1"
     inkscape:current-layer="g8" /><g
     id="g8"
     inkscape:groupmode="layer"
     inkscape:label="워드마크"
     transform="matrix(1.3333333,0,0,-1.3333333,-743.92041,793.70667)"><g
       id="g10"
       transform="matrix(1.5389387,0,0,1.5389387,139.47288,-118.14846)"><g
         id="g12"
         clip-path="url(#clipPath16)"><g
           id="g18"
           transform="translate(289.5625,383.3672)"><path
             d="M 0,0 C 0.646,0.396 1.711,0.093 1.711,-1.035 V -94.81 c 0,0 -0.027,-1.919 -1.707,-1.197 -3.988,1.725 -10.684,5.547 -15.77,10.69 0,0 -1.877,1.703 -1.877,5.074 v 62.309 c 0,1.731 0,4.727 2.372,6.799 0,0 10.128,8.24 15.271,11.135"
             style="fill:#9e1915;fill-opacity:1;fill-rule:nonzero;stroke:none"
             id="path20" /></g><g
           id="g22"
           transform="translate(297.2773,349.9941)"><path
             d="m 0,0 c -2.789,-7.114 6.811,-14.919 6.811,-14.919 0,0 0.46,-0.393 1.293,-1.098 8.533,-7.259 56.8,-48.322 60.117,-50.728 4.933,-3.561 1.287,-4.729 1.287,-4.729 -12.371,-1.035 -17.467,0.071 -17.467,0.071 0,0 -5.244,0.285 -9.932,4.101 L 1.16,-32.39 c -3.881,3.891 -4.496,8.401 -4.496,8.401 0,0 -1.131,8.715 0.008,15.861 C -2.904,-5.298 -1.285,-1.684 0,0"
             style="fill:#26336a;fill-opacity:1;fill-rule:nonzero;stroke:none"
             id="path24" /></g><path
           d="M 421.766,325.86 H 380.83 v 18.18 h 40.936 z"
           style="fill:#9e1915;fill-opacity:1;fill-rule:nonzero;stroke:none"
           id="path26" /><g
           id="g28"
           transform="translate(439.4082,411.2803)"><path
             d="m 0,0 c 0.656,0.396 1.709,0.089 1.709,-1.053 v -153.011 c 0,0 -0.018,-1.936 -1.705,-1.217 -3.988,1.734 -10.682,5.545 -15.774,10.693 0,0 -1.873,1.707 -1.873,5.086 v 121.565 c 0,1.735 0.004,4.739 2.37,6.792 0,0 10.13,8.24 15.273,11.145"
             style="fill:#26336a;fill-opacity:1;fill-rule:nonzero;stroke:none"
             id="path30" /></g><g
           id="g32"
           transform="translate(361.4668,305.7334)"><path
             d="m 0,0 c 0,-3.379 1.871,-5.076 1.871,-5.076 3.625,-4.219 9.508,-8.82 15.781,-13.158 1.51,-1.039 1.711,1.195 1.711,1.195 v 93.638 c 0,1.128 -1.054,1.43 -1.709,1.035 C 12.512,74.739 2.391,66.499 2.391,66.499 0.02,64.427 0.02,61.431 0.02,59.7 Z"
             style="fill:#26336a;fill-opacity:1;fill-rule:nonzero;stroke:none"
             id="path34" /></g><g
           id="g36"
           transform="translate(532.041,383.3672)"><path
             d="m 0,0 c -5.143,-2.895 -15.68,-11.135 -15.68,-11.135 -2.373,-2.072 -2.373,-5.068 -2.373,-6.799 v -49.184 c 0,-26.274 -25.972,-28.694 -25.972,-28.694 18.865,-1.373 30.181,3.745 36.658,9.192 9.053,7.619 9.082,16.119 9.082,17.508 V -1.035 C 1.715,0.093 0.656,0.396 0,0"
             style="fill:#26336a;fill-opacity:1;fill-rule:nonzero;stroke:none"
             id="path38" /></g><g
           id="g40"
           transform="translate(458.9844,314.2549)"><path
             d="m 0,0 c 0,-1.326 1.023,-23.041 29.047,-26.699 0.338,0.029 25.957,2.717 25.957,28.693 l -0.045,0.004 c 0,-9.508 -8.057,-17.152 -17.576,-17.152 -9.69,0 -17.541,7.908 -17.588,17.656 v 48.677 c 0,1.73 -0.008,4.726 -2.375,6.799 0,0 -10.545,8.24 -15.688,11.134 -0.652,0.396 -1.707,0.093 -1.707,-1.035 z"
             style="fill:#9e1915;fill-opacity:1;fill-rule:nonzero;stroke:none"
             id="path42" /></g><g
           id="g44"
           transform="translate(304.0879,335.0752)"><path
             d="m 0,0 c 0,0 0.461,-0.393 1.293,-1.098 0.027,0.375 0.205,0.942 0.877,1.688 1.283,1.453 31.078,24.645 31.078,24.645 4.285,3.008 4.145,7.073 4.145,7.073 v 17.359 c 0,2.736 -2.139,1.17 -2.139,1.17 L 9.125,29.974 C 6.557,27.919 -3.264,20.438 -6.811,14.919 -9.6,7.805 0,0 0,0"
             style="fill:#9e1915;fill-opacity:1;fill-rule:nonzero;stroke:none"
             id="path46" /></g></g></g></g></svg>
