<?xml version="1.0" standalone="no"?>
<!DOCTYPE svg PUBLIC "-//W3C//DTD SVG 20010904//EN"
 "http://www.w3.org/TR/2001/REC-SVG-20010904/DTD/svg10.dtd">
<svg version="1.0" xmlns="http://www.w3.org/2000/svg"
 width="1000.000000pt" height="1000.000000pt" viewBox="0 0 1000.000000 1000.000000"
 preserveAspectRatio="xMidYMid meet">

<g transform="translate(0.000000,1000.000000) scale(0.100000,-0.100000)"
fill="#000000" stroke="none">
<path d="M0 5000 l0 -5000 5000 0 5000 0 0 5000 0 5000 -5000 0 -5000 0 0
-5000z m1814 1584 c78 -111 200 -286 271 -389 l130 -187 3 391 2 391 245 0
245 0 -2 -742 -3 -743 -230 -2 -230 -3 -275 397 -275 396 -3 -397 -2 -396
-240 0 -240 0 0 745 0 745 232 -2 231 -3 141 -201z m2377 -359 c121 -308 251
-640 289 -737 39 -97 70 -179 70 -182 0 -4 -111 -5 -247 -4 l-248 3 -35 98
-35 97 -279 -2 -280 -3 -35 -97 -35 -98 -249 0 c-195 0 -248 3 -244 13 21 52
462 1176 507 1292 15 39 37 96 49 128 l23 57 264 -2 265 -3 220 -560z m728
217 c69 -191 144 -403 168 -471 24 -68 47 -130 51 -138 6 -10 32 52 79 184 39
109 117 327 174 486 l102 287 250 0 c195 0 248 -3 244 -12 -23 -59 -218 -552
-294 -748 -53 -135 -117 -299 -143 -365 -26 -66 -69 -175 -95 -242 l-48 -123
-262 0 -263 0 -17 43 c-9 23 -98 249 -197 502 -100 253 -223 567 -274 699 -52
131 -94 240 -94 242 0 2 111 4 248 4 l247 0 124 -348z m2386 163 c0 -137 -3
-180 -12 -181 -7 -1 -161 -2 -343 -3 l-330 -1 0 -95 0 -95 338 -2 337 -3 3
-177 2 -178 -340 0 -340 0 0 -100 0 -100 350 0 350 0 0 -185 0 -185 -587 2
-588 3 -3 730 c-1 402 0 736 3 743 3 10 125 12 582 10 l578 -3 0 -180z m1180
156 c231 -64 361 -184 400 -368 51 -241 -39 -464 -223 -549 -35 -16 -60 -34
-58 -41 5 -11 42 -63 249 -341 54 -74 101 -140 104 -148 4 -12 -32 -14 -240
-14 l-244 0 -143 210 -144 210 -83 0 -83 0 0 -210 0 -210 -232 2 -233 3 -3
743 -2 744 427 -5 c404 -4 433 -5 508 -26z m-6790 -2286 c0 -126 1 -368 3
-537 l2 -308 410 0 c226 0 410 -3 410 -7 0 -5 -35 -97 -77 -205 l-78 -198
-577 0 -578 0 0 738 c0 406 3 742 7 746 4 3 113 5 242 4 l236 -3 0 -230z
m2018 160 c15 -38 91 -230 167 -425 122 -311 205 -524 350 -892 l38 -98 -248
0 -248 0 -18 48 c-10 26 -25 67 -35 92 l-17 45 -280 3 -280 2 -34 -92 -34 -93
-247 -3 c-136 -1 -247 0 -247 3 0 3 21 58 46 123 25 64 90 230 144 367 170
435 210 535 290 740 43 110 83 212 89 228 l11 27 262 -2 263 -3 28 -70z m1657
64 c175 -21 282 -105 326 -255 23 -81 16 -229 -16 -301 -24 -57 -94 -128 -141
-145 -33 -11 -37 -24 -10 -33 10 -3 47 -23 80 -45 77 -50 115 -108 132 -199
13 -73 8 -203 -10 -261 -31 -101 -114 -190 -209 -222 -27 -9 -179 -13 -574
-16 l-538 -3 0 746 0 745 438 0 c246 0 475 -5 522 -11z m1802 6 c5 -5 -34
-111 -116 -310 l-33 -80 -333 -5 c-303 -5 -334 -7 -344 -22 -7 -12 -8 -23 -1
-34 6 -9 147 -72 315 -140 327 -133 391 -168 452 -249 57 -75 73 -132 73 -255
0 -94 -3 -111 -27 -160 -52 -106 -131 -176 -242 -213 -44 -15 -106 -17 -516
-17 -257 0 -469 2 -471 4 -2 2 -3 90 -1 195 l3 191 372 0 c395 0 419 3 425 47
2 14 -5 27 -20 36 -13 9 -142 63 -288 122 -312 126 -346 143 -404 205 -220
236 -114 629 184 680 51 9 964 13 972 5z"/>
<path d="M3623 6088 l-80 -223 160 -3 c88 -1 161 -1 163 1 3 3 -151 436 -158
443 -3 2 -41 -96 -85 -218z"/>
<path d="M8010 6255 l0 -155 153 0 c134 0 156 2 185 20 101 62 97 216 -8 271
-29 16 -58 19 -182 19 l-148 0 0 -155z"/>
<path d="M3340 4008 c-41 -117 -76 -218 -78 -225 -3 -10 30 -13 157 -13 123 0
161 3 161 13 0 7 -34 106 -75 221 -41 115 -75 210 -75 212 0 2 -3 4 -7 4 -5 0
-42 -96 -83 -212z"/>
<path d="M4870 4239 l0 -120 161 3 161 3 24 28 c19 23 24 39 24 85 0 106 -31
122 -237 122 l-133 0 0 -121z"/>
<path d="M4870 3695 l0 -125 171 0 171 0 34 34 c31 31 34 39 34 96 0 55 -3 65
-29 91 l-29 29 -176 0 -176 0 0 -125z"/>
</g>
</svg>
