<?xml version="1.0" standalone="no"?>
<!DOCTYPE svg PUBLIC "-//W3C//DTD SVG 20010904//EN"
 "http://www.w3.org/TR/2001/REC-SVG-20010904/DTD/svg10.dtd">
<svg version="1.0" xmlns="http://www.w3.org/2000/svg"
 width="1001.000000pt" height="1000.000000pt" viewBox="0 0 1001.000000 1000.000000"
 preserveAspectRatio="xMidYMid meet">

<g transform="translate(0.000000,1000.000000) scale(0.100000,-0.100000)"
fill="#000000" stroke="none">
<path d="M3275 6718 c-9 -18 -143 -332 -299 -698 l-283 -665 330 -3 c308 -2
329 -3 323 -20 -4 -9 -68 -162 -144 -339 l-136 -323 -334 -2 -334 -3 -294
-690 c-162 -379 -294 -693 -294 -697 0 -5 780 -8 1733 -8 l1734 0 205 483 205
482 429 6 c305 5 466 12 559 23 649 83 1048 369 1317 946 156 334 215 555 205
765 -18 361 -254 619 -658 719 -208 51 -137 50 -2257 53 l-1992 4 -15 -33z
m4030 -353 c133 -18 280 -61 345 -103 60 -38 127 -113 153 -170 32 -72 35
-213 7 -328 -43 -173 -181 -488 -278 -634 -205 -309 -507 -466 -977 -510 -64
-6 -460 -10 -946 -10 l-836 0 -62 -147 c-34 -82 -61 -151 -61 -155 0 -5 149
-8 330 -8 182 0 330 -3 330 -7 0 -5 -62 -154 -139 -333 l-138 -325 -1338 -3
c-1264 -2 -1337 -1 -1331 15 4 10 68 160 142 335 l136 318 332 0 333 0 296
698 c164 383 297 700 297 705 0 4 -146 7 -325 7 -179 0 -325 4 -325 8 0 5 57
141 126 303 69 162 132 309 139 327 l14 32 1830 0 c1581 0 1846 -2 1946 -15z"/>
<path d="M5165 5528 c-43 -101 -84 -198 -92 -216 l-14 -33 603 3 603 3 67 32
c133 63 233 194 226 298 -2 39 -8 52 -31 69 -28 21 -36 21 -657 24 l-628 2
-77 -182z"/>
<path d="M5470 3435 c0 -10 11 -15 35 -15 l35 0 0 -85 c0 -69 3 -85 15 -85 12
0 15 16 15 85 l0 85 35 0 c24 0 35 5 35 15 0 12 -16 15 -85 15 -69 0 -85 -3
-85 -15z"/>
<path d="M5680 3350 c0 -93 1 -100 20 -100 17 0 19 8 22 73 l3 72 26 -70 c15
-38 33 -70 40 -70 7 0 25 32 40 70 l28 70 0 -72 c1 -66 3 -73 21 -73 19 0 20
7 20 100 l0 100 -29 0 c-27 0 -31 -5 -52 -65 -13 -35 -26 -61 -30 -57 -3 4
-16 33 -29 65 -20 51 -25 57 -51 57 l-29 0 0 -100z"/>
</g>
</svg>
