<?xml version="1.0" standalone="no"?>
<!DOCTYPE svg PUBLIC "-//W3C//DTD SVG 20010904//EN"
 "http://www.w3.org/TR/2001/REC-SVG-20010904/DTD/svg10.dtd">
<svg version="1.0" xmlns="http://www.w3.org/2000/svg"
 width="994.000000pt" height="442.000000pt" viewBox="0 0 994.000000 442.000000"
 preserveAspectRatio="xMidYMid meet">

<g transform="translate(0.000000,442.000000) scale(0.100000,-0.100000)"
fill="#000000" stroke="none">
<path d="M0 2210 l0 -2210 4970 0 4970 0 0 2210 0 2210 -4970 0 -4970 0 0
-2210z m3352 926 c174 -31 265 -126 303 -313 14 -69 16 -153 13 -624 -3 -532
-4 -545 -26 -611 -31 -92 -78 -156 -143 -196 -84 -51 -117 -57 -304 -57 -138
0 -180 3 -221 18 -117 41 -184 111 -227 237 -21 63 -22 79 -25 608 -2 448 0
558 12 622 26 138 86 229 183 278 33 17 61 25 168 46 46 9 196 4 267 -8z
m3779 0 c176 -32 265 -123 304 -312 14 -69 16 -153 13 -624 -3 -531 -4 -547
-25 -610 -43 -126 -99 -187 -214 -232 -43 -17 -82 -22 -194 -26 -155 -4 -231
6 -310 42 -104 47 -163 135 -191 285 -13 67 -15 169 -12 618 3 522 4 540 25
603 52 154 135 228 287 255 94 17 223 17 317 1z m1224 -1 c132 -25 213 -84
262 -191 33 -73 46 -151 47 -291 1 -162 6 -157 -162 -161 -178 -4 -175 -6
-183 134 -8 134 -23 168 -77 183 -81 23 -144 2 -169 -56 -19 -48 -13 -148 13
-191 10 -17 107 -109 217 -204 222 -193 295 -266 326 -330 40 -83 51 -210 31
-350 -27 -186 -115 -288 -287 -333 -78 -20 -299 -20 -378 0 -202 53 -277 179
-279 473 -1 170 -9 162 173 162 173 0 171 1 171 -127 0 -151 29 -193 132 -193
45 0 62 5 83 23 46 39 55 157 18 229 -7 15 -104 106 -216 201 -238 205 -299
267 -335 344 -26 55 -27 66 -27 208 0 115 4 164 18 210 45 150 148 237 312
264 81 14 228 12 310 -4z m-6359 -15 c246 -22 370 -100 421 -265 15 -50 18
-94 18 -260 0 -180 -2 -207 -23 -273 -18 -57 -33 -83 -72 -124 l-49 -52 40
-70 c99 -174 94 -150 97 -436 4 -314 18 -290 -167 -290 -94 0 -132 4 -147 14
-18 13 -19 31 -24 238 l-5 224 -48 85 c-65 113 -84 129 -153 129 -49 0 -55 -2
-64 -26 -6 -14 -10 -156 -10 -329 0 -367 16 -335 -170 -335 -69 0 -130 4 -136
8 -33 22 -34 47 -34 879 0 647 3 833 13 853 7 15 25 28 42 31 48 11 350 10
471 -1z m2657 -14 c84 -19 178 -68 219 -115 17 -19 43 -60 57 -91 24 -52 26
-66 29 -230 3 -159 2 -180 -18 -233 -13 -34 -41 -78 -70 -110 l-49 -54 50 -49
c27 -27 62 -74 77 -104 27 -54 27 -57 27 -260 -1 -192 -2 -209 -24 -264 -49
-124 -159 -202 -325 -231 -128 -22 -572 -22 -604 1 l-22 15 0 852 c0 469 4
858 9 865 17 27 71 32 321 27 175 -3 276 -9 323 -19z m1128 14 c221 -25 340
-105 389 -259 17 -54 20 -91 20 -256 0 -282 -17 -344 -122 -447 -32 -32 -58
-65 -58 -75 0 -9 52 -162 115 -339 63 -178 115 -332 115 -343 0 -41 -35 -51
-176 -51 -111 0 -135 3 -153 18 -17 14 -125 309 -224 611 -15 45 -50 67 -85
55 l-27 -9 -5 -319 -5 -318 -24 -19 c-20 -16 -40 -19 -146 -19 -102 0 -126 3
-144 18 l-21 17 2 860 3 859 25 13 c31 16 393 18 521 3z"/>
<path d="M3140 2807 c-24 -8 -41 -23 -52 -47 -16 -32 -18 -79 -18 -527 0 -360
3 -499 12 -518 16 -35 57 -55 113 -55 56 0 97 20 113 55 9 19 12 159 12 523 0
475 -1 498 -20 529 -13 21 -31 35 -57 42 -47 13 -59 13 -103 -2z"/>
<path d="M6922 2809 c-20 -6 -41 -23 -52 -42 -19 -31 -20 -53 -20 -529 0 -364
3 -504 12 -523 16 -36 57 -55 117 -55 42 0 56 5 83 29 l33 29 3 494 c3 519 1
555 -41 583 -30 19 -95 26 -135 14z"/>
<path d="M1815 2767 c-4 -18 -5 -112 -3 -210 2 -144 6 -180 18 -188 22 -15
140 -5 183 16 61 29 72 60 72 205 0 105 -3 131 -18 154 -27 40 -74 56 -166 56
l-80 0 -6 -33z"/>
<path d="M4344 2777 c-2 -7 -3 -85 -2 -172 l3 -160 83 -3 c146 -5 182 29 182
173 0 101 -14 135 -64 159 -43 20 -194 23 -202 3z"/>
<path d="M4347 2093 c-4 -3 -7 -95 -7 -204 l0 -199 26 -6 c44 -11 171 2 198
20 53 34 61 60 61 191 0 136 -11 166 -72 191 -33 14 -194 20 -206 7z"/>
<path d="M5582 2802 c-9 -7 -12 -58 -10 -223 l3 -214 65 -3 c82 -4 128 9 165
48 l30 31 0 144 0 145 -31 30 c-17 17 -48 35 -70 40 -49 12 -135 12 -152 2z"/>
</g>
</svg>
