<?xml version="1.0" standalone="no"?>
<!DOCTYPE svg PUBLIC "-//W3C//DTD SVG 20010904//EN"
 "http://www.w3.org/TR/2001/REC-SVG-20010904/DTD/svg10.dtd">
<svg version="1.0" xmlns="http://www.w3.org/2000/svg"
 width="718.000000pt" height="394.000000pt" viewBox="0 0 718.000000 394.000000"
 preserveAspectRatio="xMidYMid meet">

<g transform="translate(0.000000,394.000000) scale(0.100000,-0.100000)"
fill="#000000" stroke="none">
<path d="M778 3171 l-288 -224 0 -556 c0 -468 2 -566 15 -616 45 -172 183
-302 354 -335 71 -13 1494 -14 1576 0 181 30 334 189 364 380 7 39 11 276 11
588 l0 522 515 0 c574 0 545 3 607 -70 43 -49 58 -98 58 -183 0 -89 -36 -160
-105 -202 l-48 -30 -429 -3 c-235 -2 -428 -5 -428 -8 0 -3 46 -106 101 -229
l102 -225 175 -2 176 -3 171 -272 170 -273 353 0 c193 0 352 4 352 8 0 4 -4
12 -9 18 -16 16 -341 545 -341 554 0 5 28 24 62 42 79 42 194 156 230 228 51
102 58 154 58 405 0 251 -7 302 -58 405 -37 77 -158 195 -247 242 -136 71 -88
68 -1124 68 l-931 0 0 -688 0 -688 -22 -44 c-43 -83 -27 -81 -565 -78 l-471 3
-27 25 c-63 59 -60 19 -65 775 l-5 690 -287 -224z"/>
<path d="M4760 2415 l0 -985 911 2 912 3 138 227 c77 126 139 230 139 233 0 3
-342 5 -760 5 l-760 0 0 750 0 750 -290 0 -290 0 0 -985z"/>
</g>
</svg>
