<?xml version="1.0" encoding="UTF-8"?>
<svg id="_레이어_2" data-name="레이어 2" xmlns="http://www.w3.org/2000/svg" viewBox="0 0 366.08 81.33">
  <defs>
    <style>
      .cls-1 {
        fill: #fff;
      }

      .cls-2 {
        fill: #808284;
      }

      .cls-3 {
        fill: #014594;
      }
    </style>
  </defs>
  <g id="Layer_1" data-name="Layer 1">
    <rect class="cls-1" width="366.08" height="81.33"/>
    <g>
      <g>
        <path class="cls-2" d="M129.2,61.48h1.69v4.22c0,1.21,.67,2.01,1.77,2.01s1.77-.81,1.77-2.01v-4.22h1.69v4.22c0,2.14-1.38,3.54-3.46,3.54s-3.46-1.39-3.46-3.54v-4.22Z"/>
        <path class="cls-2" d="M141.87,69.05l-1.47-2.39h-1.35v2.39h-1.69v-7.57h3.05c1.92,0,3.05,1.02,3.05,2.59,0,1.04-.49,1.84-1.38,2.26l1.75,2.72h-1.96Zm-2.81-3.88h1.28c.89,0,1.43-.38,1.43-1.1s-.54-1.1-1.43-1.1h-1.28v2.19Z"/>
        <path class="cls-2" d="M144.6,61.48h3.29c1.68,0,2.63,.87,2.63,2.26,0,.54-.36,1.15-.88,1.35,.72,.23,1.23,.94,1.23,1.67,0,1.4-1,2.29-2.7,2.29h-3.57v-7.57Zm3.21,3.07c.64,0,1.01-.28,1.01-.81s-.37-.82-1.01-.82h-1.52v1.63h1.52Zm.28,3.06c.67,0,1.09-.3,1.09-.85s-.42-.85-1.09-.85h-1.8v1.71h1.8Z"/>
        <path class="cls-2" d="M156.26,67.58h-2.93l-.53,1.47h-1.75l2.93-7.57h1.75l2.93,7.57h-1.88l-.53-1.47Zm-.52-1.47l-.95-2.64-.95,2.64h1.89Z"/>
        <path class="cls-2" d="M159.43,61.48h1.41l3.78,4.55v-4.64h1.69v7.57h-1.41l-3.78-4.55v4.64h-1.69v-7.57Z"/>
        <path class="cls-2" d="M174.75,69.05l-1.47-2.39h-1.35v2.39h-1.69v-7.57h3.05c1.92,0,3.05,1.02,3.05,2.59,0,1.04-.49,1.84-1.38,2.26l1.76,2.72h-1.96Zm-2.81-3.88h1.28c.89,0,1.43-.38,1.43-1.1s-.54-1.1-1.43-1.1h-1.28v2.19Z"/>
        <path class="cls-2" d="M177.07,65.26c0-2.29,1.74-3.97,4.09-3.97s4.09,1.68,4.09,3.97-1.74,3.97-4.09,3.97-4.09-1.68-4.09-3.97Zm6.48,0c0-1.43-1.02-2.45-2.4-2.45s-2.4,1.02-2.4,2.45,1.02,2.45,2.4,2.45,2.4-1.03,2.4-2.45Z"/>
        <path class="cls-2" d="M186.24,61.48h3.29c1.68,0,2.63,.87,2.63,2.26,0,.54-.36,1.15-.88,1.35,.72,.23,1.23,.94,1.23,1.67,0,1.4-1,2.29-2.7,2.29h-3.57v-7.57Zm3.21,3.07c.64,0,1.01-.28,1.01-.81s-.37-.82-1.01-.82h-1.52v1.63h1.52Zm.28,3.06c.67,0,1.09-.3,1.09-.85s-.42-.85-1.09-.85h-1.8v1.71h1.8Z"/>
        <path class="cls-2" d="M193.16,65.26c0-2.29,1.74-3.97,4.09-3.97s4.09,1.68,4.09,3.97-1.74,3.97-4.09,3.97-4.09-1.68-4.09-3.97Zm6.48,0c0-1.43-1.02-2.45-2.4-2.45s-2.4,1.02-2.4,2.45,1.02,2.45,2.4,2.45,2.4-1.03,2.4-2.45Z"/>
        <path class="cls-2" d="M208.17,62.98h-2.46v6.07h-1.69v-6.07h-2.46v-1.5h6.61v1.5Z"/>
        <path class="cls-2" d="M210.76,61.48v7.57h-1.69v-7.57h1.69Z"/>
        <path class="cls-2" d="M211.77,65.26c0-2.29,1.72-3.97,4.05-3.97,2.08,0,3.47,1.25,3.78,2.85h-1.71c-.18-.73-.95-1.3-2.03-1.3-1.37,0-2.4,1.01-2.4,2.42s1.02,2.42,2.4,2.42c1.09,0,1.98-.71,2.11-1.4h1.71c-.23,1.52-1.75,2.95-3.85,2.95-2.33,0-4.05-1.68-4.05-3.97Z"/>
        <path class="cls-2" d="M226.62,63.77h-1.75c-.1-.66-.59-1.06-1.4-1.06s-1.23,.32-1.23,.77c0,.57,.58,.76,2.06,1.07,1.75,.36,2.34,1.23,2.34,2.36,0,1.45-1.36,2.33-3.05,2.33-1.87,0-3.23-1.01-3.31-2.63h1.74c.09,.73,.72,1.21,1.69,1.21,.69,0,1.2-.34,1.2-.84,0-.6-.51-.84-1.86-1.09-1.64-.31-2.54-.99-2.54-2.41s1.36-2.18,3.07-2.18,2.95,1.03,3.04,2.47Z"/>
        <path class="cls-2" d="M231.92,61.48v6.08h3.78v1.49h-5.47v-7.57h1.69Z"/>
        <path class="cls-2" d="M241.39,67.58h-2.93l-.53,1.47h-1.75l2.93-7.57h1.76l2.93,7.57h-1.89l-.53-1.47Zm-.52-1.47l-.95-2.64-.95,2.64h1.89Z"/>
        <path class="cls-2" d="M244.56,61.48h3.29c1.68,0,2.63,.87,2.63,2.26,0,.54-.36,1.15-.88,1.35,.72,.23,1.24,.94,1.24,1.67,0,1.4-1,2.29-2.7,2.29h-3.57v-7.57Zm3.21,3.07c.64,0,1.01-.28,1.01-.81s-.37-.82-1.01-.82h-1.52v1.63h1.52Zm.28,3.06c.67,0,1.09-.3,1.09-.85s-.42-.85-1.09-.85h-1.8v1.71h1.8Z"/>
      </g>
      <g>
        <path class="cls-3" d="M208.04,32.24v-6.4c0-2.07-.77-3.99-2.31-5.77-2.53-2.6-5.49-3.89-8.88-3.89h-34.31v24.25c0,1.53-1.24,2.78-2.78,2.78h-16.46c-1.53,0-2.78-1.24-2.78-2.78V16.17l-11.32,8.22v18.76c0,4.65,3.77,8.43,8.43,8.43h27.84c4.65,0,8.43-3.77,8.43-8.43V24.59h18.44c.57,0,1.13,.08,1.68,.23,1.78,.7,2.67,2.12,2.67,4.26,0,.44-.04,.89-.13,1.35-.62,2-2.07,3-4.36,3h-15.12l4.1,8.41h6.73c4.05,6.12,6.24,9.36,6.57,9.74h13.4l.17-.07-6.9-10.4,1.42-.63c3.65-2.18,5.48-4.93,5.48-8.25Z"/>
        <polygon class="cls-3" points="252.08 43.2 222.76 43.2 222.76 16.16 211.44 16.16 211.44 51.58 246.6 51.58 252.08 43.2"/>
      </g>
    </g>
  </g>
</svg>