<?xml version="1.0" standalone="no"?>
<!DOCTYPE svg PUBLIC "-//W3C//DTD SVG 20010904//EN"
 "http://www.w3.org/TR/2001/REC-SVG-20010904/DTD/svg10.dtd">
<svg version="1.0" xmlns="http://www.w3.org/2000/svg"
 width="5180.000000pt" height="967.000000pt" viewBox="0 0 5180.000000 967.000000"
 preserveAspectRatio="xMidYMid meet">

<g transform="translate(0.000000,967.000000) scale(0.100000,-0.100000)"
fill="#000000" stroke="none">
<path d="M1483 8812 l-1013 -736 0 -1690 c0 -1699 2 -1819 36 -1986 39 -191
134 -409 251 -573 77 -108 237 -267 348 -346 50 -34 144 -89 210 -122 184 -90
324 -129 528 -150 67 -6 1010 -9 2707 -7 2925 4 2657 -4 2905 79 223 74 417
193 580 354 231 229 370 496 432 830 16 82 18 251 20 1833 l4 1742 1698 0
c1845 0 1794 1 1932 -55 156 -63 293 -191 364 -340 68 -143 80 -201 80 -410 0
-170 -2 -185 -28 -265 -33 -101 -75 -179 -137 -252 -94 -114 -192 -177 -345
-225 l-90 -28 -1452 -3 c-799 -1 -1453 -6 -1453 -10 0 -4 163 -342 363 -752
l363 -745 605 -3 604 -3 498 -747 c274 -411 539 -804 588 -874 l90 -128 1207
0 c664 0 1213 4 1219 8 9 6 -174 289 -603 936 -338 510 -613 931 -610 934 3 3
64 31 135 63 239 106 528 322 703 525 196 229 313 466 364 739 17 92 19 160
19 840 0 676 -2 748 -18 830 -55 267 -172 511 -355 735 -96 118 -271 270 -440
382 -307 202 -614 313 -971 348 -68 7 -1174 10 -3237 10 l-3134 0 0 -2203 c0
-1920 -2 -2210 -15 -2260 -43 -165 -168 -298 -336 -359 l-64 -23 -1550 0
-1550 0 -70 22 c-165 52 -288 175 -346 348 -11 33 -15 432 -19 2256 l-5 2217
-1012 -736z"/>
<path d="M15220 6375 l0 -3175 3153 0 3152 1 488 747 487 747 -2625 3 -2625 2
0 2425 0 2425 -1015 0 -1015 0 0 -3175z"/>
<path d="M28700 4795 l0 -2555 675 0 675 0 0 1205 c0 663 3 1205 8 1204 4 0
491 -542 1082 -1204 l1075 -1204 1130 2 1130 2 774 1918 c462 1145 777 1913
782 1905 10 -18 1110 -2781 1112 -2793 1 -7 -303 -12 -890 -15 l-891 -5 211
-507 212 -508 1587 0 c1538 0 1587 1 1580 18 -4 11 -484 1160 -1067 2555
l-1060 2537 -800 0 -800 0 -944 -2263 c-519 -1244 -951 -2276 -960 -2293 l-16
-31 -900 1004 c-495 552 -904 1010 -909 1017 -8 11 692 800 2257 2544 l20 22
-779 -1 -779 0 -1075 -1204 c-591 -662 -1078 -1204 -1082 -1204 -5 -1 -8 541
-8 1204 l0 1205 -675 0 -675 0 0 -2555z"/>
<path d="M39350 4795 l0 -2555 680 0 680 0 0 2555 0 2555 -680 0 -680 0 0
-2555z"/>
<path d="M43270 7340 c-303 -18 -566 -86 -812 -211 -422 -216 -691 -574 -774
-1034 -28 -153 -26 -452 4 -602 86 -432 324 -761 709 -981 171 -98 405 -179
628 -216 167 -29 368 -36 1021 -36 611 0 655 -1 726 -19 202 -52 310 -163 345
-354 41 -228 -51 -434 -230 -518 -131 -61 -68 -59 -1619 -59 l-1418 0 0 -536
0 -535 1533 4 c1597 4 1569 3 1797 48 500 99 915 388 1118 778 127 244 183
533 161 836 -16 226 -56 380 -149 570 -190 386 -564 665 -1059 790 -35 9 -123
26 -195 37 -121 19 -191 21 -891 28 -836 7 -789 4 -916 71 -68 36 -137 107
-169 174 -64 133 -62 326 4 461 43 85 103 144 190 185 129 61 82 59 1469 59
l1267 0 0 535 0 535 -1307 -2 c-720 0 -1364 -4 -1433 -8z"/>
<path d="M46600 6815 l0 -535 850 0 850 0 0 -2020 0 -2020 680 0 680 0 0 2020
0 2020 850 0 850 0 0 535 0 535 -2380 0 -2380 0 0 -535z"/>
<path d="M25845 6053 c-449 -56 -841 -329 -1040 -722 -138 -275 -170 -610 -89
-931 33 -130 67 -215 124 -310 95 -158 202 -270 348 -364 201 -131 399 -184
709 -193 207 -6 353 6 507 43 133 32 376 115 376 129 0 5 -23 76 -51 156 l-51
147 -61 -28 c-83 -37 -262 -94 -367 -117 -66 -14 -127 -18 -275 -18 -181 1
-194 2 -275 29 -100 33 -144 55 -223 108 -112 76 -236 224 -287 344 -119 276
-113 611 14 879 54 115 90 167 175 257 107 114 243 199 396 248 99 32 317 39
436 15 323 -65 565 -282 640 -573 35 -137 21 -385 -30 -533 -48 -139 -118
-242 -192 -279 -50 -26 -101 -26 -124 0 -38 42 -32 83 90 570 63 256 118 473
121 483 5 16 -9 17 -205 17 l-211 0 -6 -25 c-4 -14 -9 -25 -13 -23 -3 2 -41
20 -83 42 -67 34 -88 39 -165 43 -151 9 -265 -24 -385 -110 -144 -104 -261
-287 -314 -492 -21 -80 -26 -125 -27 -230 -2 -188 34 -302 126 -402 55 -60
111 -91 198 -109 160 -33 340 20 466 139 l32 30 15 -36 c24 -58 90 -121 159
-153 60 -28 68 -29 212 -29 127 0 161 3 220 22 243 77 431 297 513 601 23 88
26 114 26 282 0 168 -3 194 -26 282 -115 423 -491 728 -991 802 -95 15 -330
20 -412 9z m268 -924 c115 -90 -16 -540 -195 -669 -58 -43 -106 -41 -146 4
-38 44 -46 92 -32 197 22 164 92 322 182 412 76 76 142 96 191 56z"/>
</g>
</svg>
